<?xml version="1.0" standalone="no"?>
<!DOCTYPE svg PUBLIC "-//W3C//DTD SVG 20010904//EN"
 "http://www.w3.org/TR/2001/REC-SVG-20010904/DTD/svg10.dtd">
<svg version="1.0" xmlns="http://www.w3.org/2000/svg"
 width="262.000000pt" height="160.000000pt" viewBox="0 0 262.000000 160.000000"
 preserveAspectRatio="xMidYMid meet">
<metadata>
Created by potrace 1.16, written by Peter Selinger 2001-2019
</metadata>
<g transform="translate(0.000000,160.000000) scale(0.100000,-0.100000)"
fill="#000000" stroke="none">
<path d="M1430 855 c0 -168 1 -175 20 -175 18 0 20 7 20 58 l1 57 59 -64 c40
-42 65 -61 75 -57 22 8 19 16 -30 76 -25 30 -45 58 -45 62 0 5 16 26 36 48 22
24 34 46 30 55 -9 25 -22 18 -75 -42 l-51 -58 0 108 c0 100 -1 107 -20 107
-19 0 -20 -7 -20 -175z"/>
<path d="M131 988 c-5 -13 -32 -80 -61 -150 -29 -70 -50 -134 -47 -143 12 -29
32 -15 52 38 l21 52 60 3 60 3 19 -56 c19 -55 28 -62 54 -46 22 14 -103 321
-130 321 -11 0 -23 -10 -28 -22z m32 -156 c-19 -2 -37 -1 -40 2 -3 3 3 26 13
52 l18 48 22 -50 21 -49 -34 -3z"/>
<path d="M850 845 c0 -158 1 -165 20 -165 18 0 20 7 20 75 l0 75 80 0 80 0 0
-75 c0 -68 2 -75 20 -75 19 0 20 7 20 165 0 158 -1 165 -20 165 -18 0 -20 -7
-20 -70 l0 -70 -80 0 -80 0 0 70 c0 63 -2 70 -20 70 -19 0 -20 -7 -20 -165z"/>
<path d="M1150 985 c0 -20 5 -25 25 -25 20 0 25 5 25 25 0 20 -5 25 -25 25
-20 0 -25 -5 -25 -25z"/>
<path d="M393 925 c-18 -8 -33 -10 -33 -5 0 6 -9 10 -20 10 -19 0 -20 -7 -20
-125 0 -118 1 -125 20 -125 19 0 20 7 20 94 l0 94 30 12 c54 22 60 12 60 -100
l0 -100 26 0 26 0 -4 110 c-3 114 -10 131 -53 143 -11 4 -35 0 -52 -8z"/>
<path d="M1725 932 c-11 -2 -26 -9 -32 -14 -9 -7 -13 -7 -13 1 0 6 -9 11 -20
11 -19 0 -20 -7 -20 -125 0 -118 1 -125 20 -125 19 0 20 7 20 94 l0 94 31 13
c47 19 59 -3 59 -113 0 -81 2 -88 20 -88 19 0 20 7 20 95 0 93 1 96 26 107 48
22 59 3 62 -106 2 -88 4 -96 22 -96 19 0 20 7 20 104 0 57 -3 112 -6 121 -11
28 -50 36 -96 20 -23 -8 -47 -10 -53 -6 -16 13 -39 18 -60 13z"/>
<path d="M2273 925 c-18 -8 -33 -10 -33 -5 0 6 -11 10 -25 10 l-25 0 0 -125 0
-125 25 0 c25 0 25 0 25 94 l0 94 30 12 c54 22 60 12 60 -100 0 -93 1 -100 20
-100 19 0 20 7 20 114 0 79 -4 117 -12 124 -24 18 -53 21 -85 7z"/>
<path d="M2503 925 c-18 -8 -33 -10 -33 -5 0 6 -11 10 -25 10 l-25 0 0 -125 0
-125 25 0 c25 0 25 0 25 94 l0 94 30 12 c54 22 60 12 60 -100 0 -93 1 -100 20
-100 19 0 20 7 20 114 0 79 -4 117 -12 124 -24 18 -53 21 -85 7z"/>
<path d="M550 910 c0 -16 7 -20 31 -20 38 0 69 -16 69 -35 0 -9 -10 -15 -25
-15 -67 0 -117 -58 -95 -111 15 -35 48 -49 116 -49 l56 0 -4 106 c-3 97 -5
107 -27 125 -16 13 -39 19 -72 19 -42 0 -49 -3 -49 -20z m110 -146 l0 -45 -36
3 c-48 4 -65 29 -40 57 10 11 30 22 45 24 14 2 27 5 29 6 1 0 2 -20 2 -45z"/>
<path d="M1160 805 c0 -118 1 -125 20 -125 19 0 20 7 20 125 0 118 -1 125 -20
125 -19 0 -20 -7 -20 -125z"/>
<path d="M1303 915 c-39 -17 -73 -68 -73 -110 0 -66 65 -125 140 -125 23 0 30
4 30 20 0 11 -6 20 -12 20 -7 0 -30 5 -51 11 -101 28 -65 159 44 159 15 0 19
4 15 16 -3 9 -6 18 -6 20 0 9 -57 2 -87 -11z"/>
<path d="M1997 910 c-4 -17 0 -20 33 -20 35 0 70 -20 70 -39 0 -5 -18 -11 -41
-14 -81 -11 -115 -81 -64 -132 20 -21 34 -25 85 -25 l60 0 0 104 c0 101 -1
105 -26 125 -37 29 -109 29 -117 1z m103 -145 c0 -43 -1 -45 -29 -45 -28 0
-61 22 -61 39 0 13 26 32 57 41 15 4 29 9 31 9 1 1 2 -19 2 -44z"/>
<path d="M1643 552 c-21 -3 -42 -32 -23 -32 6 0 5 -8 -1 -19 -21 -33 -4 -51
46 -51 l46 0 -3 46 c-3 50 -19 64 -65 56z m27 -32 c-20 -13 -33 -13 -25 0 3 6
14 10 23 10 15 0 15 -2 2 -10z m10 -34 c0 -9 -30 -14 -35 -6 -4 6 3 10 14 10
12 0 21 -2 21 -4z"/>
<path d="M812 538 c-15 -15 -16 -60 0 -76 16 -16 63 -15 77 2 7 8 11 30 9 48
-3 30 -6 33 -38 36 -19 2 -41 -3 -48 -10z m55 -14 c-3 -3 -12 -4 -19 -1 -8 3
-5 6 6 6 11 1 17 -2 13 -5z m-2 -44 c-3 -5 -12 -7 -20 -3 -21 7 -19 13 6 13
11 0 18 -4 14 -10z"/>
<path d="M971 503 c18 -43 19 -49 5 -59 -22 -16 -20 -24 7 -24 20 0 28 11 49
65 20 49 23 65 12 65 -7 0 -20 -12 -28 -27 l-14 -28 -7 28 c-5 17 -14 27 -26
27 -18 0 -18 -2 2 -47z"/>
<path d="M1110 524 c-16 -40 11 -76 53 -72 24 2 34 9 41 31 14 39 -2 61 -48
65 -31 3 -37 0 -46 -24z m57 0 c-3 -3 -12 -4 -19 -1 -8 3 -5 6 6 6 11 1 17 -2
13 -5z m13 -38 c0 -9 -30 -14 -35 -6 -4 6 3 10 14 10 12 0 21 -2 21 -4z"/>
<path d="M1264 525 c19 -74 49 -101 59 -52 l4 22 8 -22 c15 -46 42 -23 61 52
5 19 2 25 -10 25 -9 0 -16 -7 -16 -15 0 -8 -4 -15 -10 -15 -5 0 -10 7 -10 15
0 25 -38 18 -43 -7 l-4 -23 -8 23 c-10 32 -39 30 -31 -3z"/>
<path d="M1460 530 c-26 -48 15 -92 70 -75 18 6 21 13 18 48 -3 40 -4 42 -40
45 -29 3 -39 -1 -48 -18z m57 -6 c-3 -3 -12 -4 -19 -1 -8 3 -5 6 6 6 11 1 17
-2 13 -5z m3 -38 c0 -11 -19 -15 -25 -6 -3 5 1 10 9 10 9 0 16 -2 16 -4z"/>
<path d="M1770 500 c0 -38 4 -50 15 -50 11 0 15 11 15 36 0 27 5 37 20 41 32
9 23 23 -15 23 l-35 0 0 -50z"/>
</g>
</svg>
