<?xml version="1.0" standalone="no"?>
<!DOCTYPE svg PUBLIC "-//W3C//DTD SVG 20010904//EN"
 "http://www.w3.org/TR/2001/REC-SVG-20010904/DTD/svg10.dtd">
<svg version="1.0" xmlns="http://www.w3.org/2000/svg"
 width="640.000000pt" height="298.000000pt" viewBox="0 0 640.000000 298.000000"
 preserveAspectRatio="xMidYMid meet">
<metadata>
Created by potrace 1.16, written by Peter Selinger 2001-2019
</metadata>
<g transform="translate(0.000000,298.000000) scale(0.100000,-0.100000)"
fill="#000000" stroke="none">
<path d="M1104 1987 c-2 -7 -3 -114 -1 -237 l2 -225 3 232 2 232 113 4 112 3
-113 2 c-84 1 -114 -1 -118 -11z"/>
<path d="M1391 1987 c14 -7 34 -18 43 -26 14 -12 16 -12 10 2 -3 9 -19 20 -36
26 -40 14 -50 13 -17 -2z"/>
<path d="M2375 1994 c70 -8 173 -8 168 -1 -2 4 -48 6 -101 5 -53 0 -83 -3 -67
-4z"/>
<path d="M2768 1993 c12 -2 30 -2 40 0 9 3 -1 5 -23 4 -22 0 -30 -2 -17 -4z"/>
<path d="M3348 1993 c7 -3 16 -2 19 1 4 3 -2 6 -13 5 -11 0 -14 -3 -6 -6z"/>
<path d="M3453 1993 c9 -2 23 -2 30 0 6 3 -1 5 -18 5 -16 0 -22 -2 -12 -5z"/>
<path d="M1365 1917 c14 -11 17 -23 13 -65 -3 -28 -1 -49 4 -46 4 3 8 27 8 53
0 45 -12 71 -34 71 -5 0 -2 -6 9 -13z"/>
<path d="M3348 1923 c6 -2 18 -2 25 0 6 3 1 5 -13 5 -14 0 -19 -2 -12 -5z"/>
<path d="M1462 1870 c0 -19 2 -27 5 -17 2 9 2 25 0 35 -3 9 -5 1 -5 -18z"/>
<path d="M3472 1880 c0 -14 2 -19 5 -12 2 6 2 18 0 25 -3 6 -5 1 -5 -13z"/>
<path d="M1435 1790 c-10 -11 -16 -21 -14 -23 2 -1 13 -9 24 -17 19 -14 19
-14 3 6 -17 19 -17 21 -1 37 10 9 15 17 12 17 -3 0 -14 -9 -24 -20z"/>
<path d="M2529 1762 c-3 -20 -2 -29 4 -23 5 5 7 19 5 32 -3 20 -5 19 -9 -9z"/>
<path d="M1228 1733 c29 -2 74 -2 100 0 26 2 2 3 -53 3 -55 0 -76 -1 -47 -3z"/>
<path d="M2358 1733 c7 -3 16 -2 19 1 4 3 -2 6 -13 5 -11 0 -14 -3 -6 -6z"/>
<path d="M1389 1672 c2 -45 0 -58 -15 -69 -10 -7 -13 -13 -8 -13 22 0 34 27
34 76 0 29 -3 55 -7 57 -5 3 -6 -20 -4 -51z"/>
<path d="M1473 1660 c0 -30 2 -43 4 -27 2 15 2 39 0 55 -2 15 -4 2 -4 -28z"/>
<path d="M1798 1683 c7 -3 16 -2 19 1 4 3 -2 6 -13 5 -11 0 -14 -3 -6 -6z"/>
<path d="M1858 1683 c7 -3 16 -2 19 1 4 3 -2 6 -13 5 -11 0 -14 -3 -6 -6z"/>
<path d="M4231 1623 c-1 -6 -4 -20 -7 -30 -5 -17 -5 -17 6 0 6 10 9 23 6 30
-3 9 -5 9 -5 0z"/>
<path d="M2488 1583 c7 -3 16 -2 19 1 4 3 -2 6 -13 5 -11 0 -14 -3 -6 -6z"/>
<path d="M2536 1577 c3 -10 9 -15 12 -12 3 3 0 11 -7 18 -10 9 -11 8 -5 -6z"/>
<path d="M1445 1559 c-4 -6 -17 -14 -29 -19 -14 -6 -16 -9 -5 -9 9 -1 24 8 34
19 10 11 15 20 12 20 -3 0 -9 -5 -12 -11z"/>
<path d="M1662 1550 c0 -14 2 -19 5 -12 2 6 2 18 0 25 -3 6 -5 1 -5 -13z"/>
<path d="M1741 1554 c0 -11 3 -14 6 -6 3 7 2 16 -1 19 -3 4 -6 -2 -5 -13z"/>
<path d="M2822 1550 c0 -14 2 -19 5 -12 2 6 2 18 0 25 -3 6 -5 1 -5 -13z"/>
<path d="M3030 1550 c6 -11 13 -20 16 -20 2 0 0 9 -6 20 -6 11 -13 20 -16 20
-2 0 0 -9 6 -20z"/>
<path d="M3474 1545 c1 -16 8 -20 36 -21 34 -2 34 -1 3 3 -19 2 -33 11 -36 21
-3 12 -4 11 -3 -3z"/>
<path d="M4521 1553 c-1 -18 -8 -23 -38 -26 l-38 -4 38 -1 c38 -2 55 13 44 40
-3 7 -6 3 -6 -9z"/>
<path d="M5082 1550 c0 -14 2 -19 5 -12 2 6 2 18 0 25 -3 6 -5 1 -5 -13z"/>
<path d="M4170 1540 c-9 -6 -10 -10 -3 -10 6 0 15 5 18 10 8 12 4 12 -15 0z"/>
<path d="M2390 1530 l-155 -6 152 -2 c93 -1 154 2 158 8 3 6 5 9 3 8 -2 -1
-73 -5 -158 -8z"/>
<path d="M2773 1523 c9 -2 23 -2 30 0 6 3 -1 5 -18 5 -16 0 -22 -2 -12 -5z"/>
<path d="M5113 1523 c9 -2 23 -2 30 0 6 3 -1 5 -18 5 -16 0 -22 -2 -12 -5z"/>
</g>
</svg>
