<?xml version="1.0" standalone="no"?>
<!DOCTYPE svg PUBLIC "-//W3C//DTD SVG 20010904//EN"
 "http://www.w3.org/TR/2001/REC-SVG-20010904/DTD/svg10.dtd">
<svg version="1.0" xmlns="http://www.w3.org/2000/svg"
 width="640.000000pt" height="298.000000pt" viewBox="0 0 640.000000 298.000000"
 preserveAspectRatio="xMidYMid meet">
<metadata>
Created by potrace 1.16, written by Peter Selinger 2001-2019
</metadata>
<g transform="translate(0.000000,298.000000) scale(0.100000,-0.100000)"
fill="#000000" stroke="none">
<path d="M0 1490 l0 -1490 3200 0 3200 0 0 1490 0 1490 -3200 0 -3200 0 0
-1490z m2540 473 l0 -33 -115 0 -115 0 0 -65 0 -65 110 0 110 0 0 -35 0 -35
-113 0 -112 0 1 -72 1 -73 122 -3 121 -3 0 -24 0 -25 -160 0 -160 0 0 228 c0
126 2 231 4 233 2 2 72 4 155 4 l151 0 0 -32z m1626 21 c56 -27 68 -61 72
-209 4 -148 -7 -196 -51 -229 -25 -19 -42 -21 -147 -21 -104 0 -122 3 -147 21
-55 40 -64 74 -61 226 3 153 12 177 79 210 47 24 206 25 255 2z m-2737 -13
c45 -45 47 -154 4 -186 -17 -12 -16 -15 10 -35 25 -20 27 -27 27 -93 0 -78 -3
-85 -40 -110 -20 -14 -50 -17 -172 -17 l-148 0 0 230 0 230 150 0 c135 0 152
-2 169 -19z m545 9 c42 -16 58 -52 58 -132 1 -70 0 -73 -33 -100 -22 -19 -28
-28 -17 -28 36 0 48 -28 48 -111 l0 -79 -35 0 -35 0 0 60 c0 88 -15 100 -130
100 l-90 0 0 -80 0 -80 -37 0 -38 0 0 230 0 230 142 0 c78 0 153 -4 167 -10z
m1007 -182 l104 -191 3 191 2 192 40 0 40 0 0 -230 0 -230 -62 0 -63 1 -110
196 -110 195 -3 -196 -2 -196 -35 0 -35 0 0 230 0 230 63 0 64 0 104 -192z
m709 160 l0 -33 -70 3 -70 4 -2 -204 -3 -203 -32 -3 -33 -3 -2 203 -3 203 -72
3 -73 3 0 29 0 30 180 0 180 0 0 -32z m990 -163 l105 -195 3 195 2 195 40 0
40 0 -2 -232 -3 -233 -59 0 -59 0 -114 199 -113 200 0 -202 0 -202 -35 0 -35
0 0 235 0 235 63 0 62 -1 105 -194z m480 -35 l0 -230 -35 0 -35 0 0 230 0 230
35 0 35 0 0 -230z m-1476 -453 c11 -8 17 -23 14 -38 -3 -21 -8 -24 -48 -24
-38 -1 -45 -4 -45 -20 0 -27 54 -34 72 -9 16 22 31 9 17 -14 -13 -21 -79 -28
-100 -11 -21 17 -19 105 4 118 24 14 65 13 86 -2z m145 -47 l17 -55 15 54 c8
30 21 57 27 59 17 5 15 -4 -16 -98 -27 -79 -51 -114 -69 -96 -4 4 0 12 10 17
22 13 22 33 -3 104 -23 67 -24 78 -9 73 7 -2 19 -28 28 -58z m262 50 c12 -7
19 -21 19 -40 0 -29 -2 -30 -45 -30 -38 0 -45 -3 -45 -20 0 -16 7 -20 34 -20
19 0 36 6 39 13 2 6 8 9 12 5 4 -4 2 -14 -5 -23 -15 -18 -81 -20 -98 -3 -18
18 -15 94 4 112 18 18 56 21 85 6z m149 -32 c6 -24 12 -47 14 -53 1 -5 8 14
15 43 8 30 19 52 26 52 12 0 28 -35 38 -85 2 -14 8 -6 17 25 7 25 17 49 22 54
17 20 17 -3 -1 -65 -23 -84 -44 -89 -62 -17 -7 29 -14 49 -15 43 -2 -5 -8 -29
-14 -52 -6 -24 -17 -43 -24 -43 -7 0 -21 30 -33 70 -16 55 -18 70 -7 70 7 0
18 -19 24 -42z m351 32 c12 -7 19 -21 19 -41 0 -31 -1 -31 -45 -27 -41 3 -45
1 -45 -19 0 -19 6 -23 30 -23 17 0 33 7 39 17 5 10 13 14 17 10 29 -28 -69
-63 -102 -36 -16 13 -19 81 -4 110 12 21 59 26 91 9z m237 -60 l3 -65 -42 -3
c-47 -3 -69 11 -69 43 0 32 24 49 60 41 25 -5 30 -2 30 14 0 16 -7 20 -35 20
-19 0 -35 -5 -35 -11 0 -5 -5 -7 -10 -4 -23 14 13 36 54 33 l41 -3 3 -65z
m210 43 c2 -13 -1 -23 -7 -23 -6 0 -11 7 -11 16 0 10 -7 14 -22 12 -20 -3 -23
-10 -26 -60 -4 -82 -22 -72 -22 11 l0 69 43 -2 c35 -1 42 -4 45 -23z"/>
<path d="M3953 1920 c-36 -15 -43 -43 -43 -165 0 -110 1 -117 25 -140 22 -22
32 -25 105 -25 121 0 136 25 128 205 -5 122 -11 129 -116 132 -42 2 -87 -1
-99 -7z"/>
<path d="M1180 1860 l0 -70 83 0 c105 0 127 13 127 75 0 57 -15 65 -124 65
l-86 0 0 -70z"/>
<path d="M1208 1733 c-27 -4 -28 -6 -28 -74 l0 -69 91 0 c116 0 129 7 129 69
0 30 -6 53 -14 60 -15 13 -133 22 -178 14z"/>
<path d="M1742 1848 l3 -83 91 0 c113 0 124 7 124 81 0 77 -11 84 -126 84
l-95 0 3 -82z"/>
<path d="M3607 1286 c-8 -19 1 -26 33 -26 32 0 41 7 33 26 -3 8 -18 14 -33 14
-15 0 -30 -6 -33 -14z"/>
<path d="M4020 1281 c0 -17 6 -21 36 -21 28 0 35 3 32 18 -2 11 -14 18 -36 20
-27 3 -32 0 -32 -17z"/>
<path d="M4520 1281 c0 -17 6 -21 36 -21 28 0 35 3 32 18 -2 11 -14 18 -36 20
-27 3 -32 0 -32 -17z"/>
<path d="M4744 1235 c-9 -22 4 -35 37 -35 24 0 29 4 29 25 0 21 -5 25 -30 25
-18 0 -33 -6 -36 -15z"/>
</g>
</svg>
