<?xml version="1.0" standalone="no"?>
<!DOCTYPE svg PUBLIC "-//W3C//DTD SVG 20010904//EN"
 "http://www.w3.org/TR/2001/REC-SVG-20010904/DTD/svg10.dtd">
<svg version="1.0" xmlns="http://www.w3.org/2000/svg"
 width="640.000000pt" height="298.000000pt" viewBox="0 0 640.000000 298.000000"
 preserveAspectRatio="xMidYMid meet">
<metadata>
Created by potrace 1.16, written by Peter Selinger 2001-2019
</metadata>
<g transform="translate(0.000000,298.000000) scale(0.100000,-0.100000)"
fill="#000000" stroke="none">
<path d="M0 1490 l0 -1490 3200 0 3200 0 0 1490 0 1490 -3200 0 -3200 0 0
-1490z m2540 473 l0 -33 -115 0 -115 0 0 -65 0 -65 110 0 110 0 0 -35 0 -35
-113 0 -112 0 1 -72 1 -73 122 -3 121 -3 0 -24 0 -25 -160 0 -160 0 0 228 c0
126 2 231 4 233 2 2 72 4 155 4 l151 0 0 -32z m1626 21 c56 -27 68 -61 72
-209 4 -148 -7 -196 -51 -229 -25 -19 -42 -21 -147 -21 -104 0 -122 3 -147 21
-55 40 -64 74 -61 226 3 153 12 177 79 210 47 24 206 25 255 2z m-2737 -13
c45 -45 47 -154 4 -186 -17 -12 -16 -15 10 -35 25 -20 27 -27 27 -93 0 -78 -3
-85 -40 -110 -20 -14 -50 -17 -172 -17 l-148 0 0 230 0 230 150 0 c135 0 152
-2 169 -19z m545 9 c42 -16 58 -52 58 -132 1 -70 0 -73 -33 -100 -22 -19 -28
-28 -17 -28 36 0 48 -28 48 -111 l0 -79 -35 0 -35 0 0 60 c0 88 -15 100 -130
100 l-90 0 0 -80 0 -80 -37 0 -38 0 0 230 0 230 142 0 c78 0 153 -4 167 -10z
m1007 -182 l104 -191 3 191 2 192 40 0 40 0 0 -230 0 -230 -62 0 -63 1 -110
196 -110 195 -3 -196 -2 -196 -35 0 -35 0 0 230 0 230 63 0 64 0 104 -192z
m709 160 l0 -33 -70 3 -70 4 -2 -204 -3 -203 -32 -3 -33 -3 -2 203 -3 203 -72
3 -73 3 0 29 0 30 180 0 180 0 0 -32z m990 -163 l105 -195 3 195 2 195 40 0
40 0 -2 -232 -3 -233 -59 0 -59 0 -114 199 -113 200 0 -202 0 -202 -35 0 -35
0 0 235 0 235 63 0 62 -1 105 -194z m480 -35 l0 -230 -35 0 -35 0 0 230 0 230
35 0 35 0 0 -230z"/>
<path d="M3953 1920 c-36 -15 -43 -43 -43 -165 0 -110 1 -117 25 -140 22 -22
32 -25 105 -25 121 0 136 25 128 205 -5 122 -11 129 -116 132 -42 2 -87 -1
-99 -7z"/>
<path d="M1180 1860 l0 -70 83 0 c105 0 127 13 127 75 0 57 -15 65 -124 65
l-86 0 0 -70z"/>
<path d="M1208 1733 c-27 -4 -28 -6 -28 -74 l0 -69 91 0 c116 0 129 7 129 69
0 30 -6 53 -14 60 -15 13 -133 22 -178 14z"/>
<path d="M1742 1848 l3 -83 91 0 c113 0 124 7 124 81 0 77 -11 84 -126 84
l-95 0 3 -82z"/>
</g>
</svg>
