<?xml version="1.0" standalone="no"?>
<!DOCTYPE svg PUBLIC "-//W3C//DTD SVG 20010904//EN"
 "http://www.w3.org/TR/2001/REC-SVG-20010904/DTD/svg10.dtd">
<svg version="1.0" xmlns="http://www.w3.org/2000/svg"
 width="2480.000000pt" height="875.000000pt" viewBox="0 0 2480.000000 875.000000"
 preserveAspectRatio="xMidYMid meet">
<metadata>
Created by potrace 1.16, written by Peter Selinger 2001-2019
</metadata>
<g transform="translate(0.000000,875.000000) scale(0.100000,-0.100000)"
fill="#000000" stroke="none">
<path d="M860 8135 l0 -55 260 0 260 0 0 -3550 0 -3550 -260 0 -260 0 0 -60 0
-60 1490 0 1490 0 0 985 0 985 -43 0 -44 0 -6 -182 c-28 -761 -211 -1224 -577
-1460 -189 -122 -422 -181 -757 -195 l-163 -6 0 1796 0 1797 43 0 c67 0 227
-27 290 -49 258 -90 396 -283 452 -636 17 -107 35 -368 35 -517 l0 -108 40 0
40 0 0 1370 0 1370 -38 0 -39 0 -6 -222 c-11 -394 -58 -636 -158 -804 -46 -79
-151 -182 -224 -221 -89 -47 -224 -83 -337 -90 l-98 -6 0 1696 0 1697 58 0
c211 0 482 -37 621 -85 496 -168 734 -651 758 -1537 l6 -218 43 0 44 0 0 985
0 985 -1460 0 -1460 0 0 -55z"/>
<path d="M7500 8130 l0 -60 265 0 265 0 0 -3545 0 -3545 -265 0 -265 0 0 -60
0 -60 1495 0 1495 0 0 985 0 985 -43 0 -44 0 -6 -202 c-22 -718 -209 -1202
-556 -1437 -202 -137 -420 -194 -828 -216 l-113 -6 0 3560 0 3561 260 0 260 0
0 50 0 50 -960 0 -960 0 0 -60z"/>
<path d="M14350 8130 l0 -60 265 0 265 0 0 -3545 0 -3545 -265 0 -265 0 0 -60
0 -60 1495 0 1495 0 0 985 0 985 -43 0 -44 0 -6 -187 c-29 -849 -263 -1344
-729 -1545 -164 -71 -365 -109 -650 -123 l-118 -6 0 3561 0 3560 260 0 260 0
0 50 0 50 -960 0 -960 0 0 -60z"/>
<path d="M21020 8135 l0 -55 255 0 255 0 0 -3550 0 -3550 -255 0 -255 0 0 -60
0 -60 1490 0 1490 0 0 985 0 985 -45 0 -45 0 0 -84 c0 -131 -19 -377 -40 -526
-77 -533 -268 -878 -585 -1059 -186 -106 -482 -171 -782 -171 l-93 0 0 1795 0
1795 43 0 c66 0 226 -27 287 -48 129 -45 218 -106 287 -197 132 -173 185 -404
200 -857 l6 -208 39 0 38 0 0 1370 0 1370 -38 0 -39 0 -7 -222 c-18 -602 -122
-878 -386 -1026 -80 -45 -218 -82 -332 -89 l-98 -6 0 1696 0 1697 58 0 c115 0
348 -21 447 -40 381 -74 620 -270 767 -628 101 -247 168 -658 168 -1033 l0
-139 45 0 45 0 0 985 0 985 -1460 0 -1460 0 0 -55z"/>
</g>
</svg>
