<?xml version="1.0" standalone="no"?>
<!DOCTYPE svg PUBLIC "-//W3C//DTD SVG 20010904//EN"
 "http://www.w3.org/TR/2001/REC-SVG-20010904/DTD/svg10.dtd">
<svg version="1.0" xmlns="http://www.w3.org/2000/svg"
 width="5000.000000pt" height="2015.000000pt" viewBox="0 0 5000.000000 2015.000000"
 preserveAspectRatio="xMidYMid meet">
<metadata>
Created by potrace 1.16, written by Peter Selinger 2001-2019
</metadata>
<g transform="translate(0.000000,2015.000000) scale(0.100000,-0.100000)"
fill="#000000" stroke="none">
<path d="M8700 14673 c0 -3530 -4 -5499 -10 -5573 -45 -518 -192 -915 -460
-1245 -76 -92 -225 -236 -325 -311 -315 -239 -712 -389 -1185 -449 -271 -35
-652 -30 -889 11 -719 124 -1275 532 -1580 1159 -141 289 -211 550 -241 890
-6 72 -10 523 -10 1128 l0 1007 -1985 0 -1985 0 0 -1032 c0 -1214 8 -1490 56
-1913 158 -1409 707 -2535 1615 -3311 745 -638 1736 -1054 2959 -1243 899
-139 2012 -158 2925 -51 1272 151 2335 538 3150 1148 258 194 569 482 765 712
778 910 1216 2089 1290 3475 6 124 10 2088 10 5623 l0 5432 -2050 0 -2050 0 0
-5457z"/>
<path d="M18459 15625 c-442 -39 -811 -112 -1189 -237 -1151 -379 -2095 -1170
-2770 -2323 -105 -180 -310 -595 -395 -799 -261 -630 -443 -1337 -529 -2051
-66 -544 -73 -1143 -20 -1660 125 -1221 591 -2359 1318 -3218 746 -882 1732
-1464 2931 -1731 675 -150 1482 -193 2281 -121 1840 166 3508 1068 4362 2360
98 147 272 485 321 620 91 253 151 545 151 737 l0 38 -1874 0 -1875 0 -41 -78
c-162 -304 -456 -589 -780 -756 -310 -160 -627 -225 -1035 -213 -369 11 -646
72 -910 201 -587 287 -916 856 -1020 1764 -16 135 -35 559 -26 568 2 2 1714 4
3803 4 l3798 0 0 218 c0 604 -63 1368 -160 1943 -196 1164 -568 2113 -1111
2835 -205 272 -497 575 -749 777 -809 649 -1825 1001 -3204 1113 -271 22
-1069 28 -1277 9z m1235 -2479 c502 -80 892 -299 1186 -667 182 -228 322 -527
393 -844 42 -183 67 -382 67 -525 l0 -80 -1929 0 -1929 0 4 98 c13 274 35 458
79 652 171 750 609 1207 1290 1345 67 14 159 29 206 34 123 14 514 6 633 -13z"/>
<path d="M30730 15633 c-470 -35 -838 -101 -1216 -219 -631 -195 -1178 -499
-1699 -942 -138 -117 -428 -411 -555 -562 -556 -658 -967 -1436 -1240 -2341
-383 -1272 -444 -2643 -169 -3812 304 -1296 955 -2362 1907 -3120 761 -607
1701 -990 2767 -1128 598 -77 1342 -76 1960 2 1412 178 2709 785 3592 1680
328 333 562 654 738 1014 87 177 136 301 180 451 51 174 85 375 85 507 l0 77
-1872 0 -1873 0 -34 -63 c-248 -453 -678 -790 -1176 -920 -200 -53 -280 -61
-565 -61 -298 -1 -410 12 -635 69 -398 102 -708 303 -936 608 -285 381 -444
944 -466 1650 l-6 207 3801 0 3802 0 0 243 c0 616 -59 1327 -161 1930 -380
2267 -1429 3699 -3174 4332 -624 227 -1304 353 -2135 395 -178 9 -812 11 -920
3z m1042 -2478 c557 -65 988 -301 1297 -710 266 -352 408 -784 434 -1327 l5
-88 -1931 0 -1930 0 6 173 c15 405 104 794 248 1079 255 505 691 799 1294 873
151 18 424 18 577 0z"/>
<path d="M44765 15500 c-745 -59 -1368 -261 -1900 -615 -244 -163 -405 -306
-617 -552 -190 -219 -327 -297 -401 -229 -86 80 -107 221 -107 744 l0 352
-1895 0 -1895 0 0 -7590 0 -7590 1915 0 1915 0 0 2083 c0 1286 4 2104 10 2141
20 124 70 170 176 164 105 -6 176 -50 334 -204 145 -142 193 -182 310 -261
437 -293 1058 -513 1710 -607 349 -50 897 -71 1218 -47 1052 82 1942 476 2666
1181 689 670 1186 1577 1480 2700 271 1037 354 2340 220 3485 -132 1133 -473
2107 -1007 2871 -289 414 -724 856 -1109 1127 -490 345 -1001 579 -1578 722
-228 56 -354 79 -620 111 -148 18 -664 27 -825 14z m-630 -2961 c1034 -102
1644 -711 1859 -1854 48 -254 71 -484 87 -860 9 -227 6 -703 -6 -835 -2 -25
-7 -94 -10 -155 -9 -157 -42 -477 -66 -635 -158 -1047 -549 -1735 -1158 -2040
-320 -160 -682 -217 -1147 -180 -1032 82 -1615 597 -1858 1640 -159 681 -189
1810 -70 2640 162 1140 615 1877 1329 2165 159 64 401 118 580 129 85 5 342
-3 460 -15z"/>
<path d="M48438 3060 c-551 -50 -998 -461 -1092 -1005 -20 -114 -20 -307 -1
-418 67 -384 313 -715 663 -891 191 -96 436 -140 660 -117 539 54 964 437
1079 971 25 119 25 372 0 490 -81 376 -312 675 -652 845 -205 102 -430 145
-657 125z m237 -141 c367 -45 683 -271 846 -604 71 -146 99 -260 106 -425 8
-206 -22 -348 -110 -525 -141 -285 -387 -485 -702 -572 -90 -25 -117 -27 -260
-28 -165 0 -238 11 -361 55 -401 144 -680 500 -724 922 -52 511 285 1002 785
1143 152 42 272 52 420 34z"/>
<path d="M48110 1871 l0 -651 80 0 80 0 0 280 0 280 177 -2 177 -3 119 -277
120 -278 89 0 c81 0 89 2 84 18 -3 10 -59 143 -124 297 l-118 279 58 28 c106
54 178 180 178 313 0 155 -95 283 -250 336 -60 21 -86 23 -367 27 l-303 4 0
-651z m620 473 c48 -22 95 -70 112 -113 16 -43 11 -137 -10 -184 -22 -49 -72
-92 -129 -113 -27 -9 -98 -13 -240 -14 l-203 0 0 226 0 226 213 -4 c189 -3
217 -5 257 -24z"/>
</g>
</svg>
