<?xml version="1.0" encoding="utf-8"?>
<!-- Generator: Adobe Illustrator 16.0.3, SVG Export Plug-In . SVG Version: 6.00 Build 0)  -->
<!DOCTYPE svg PUBLIC "-//W3C//DTD SVG 1.1//EN" "http://www.w3.org/Graphics/SVG/1.1/DTD/svg11.dtd">
<svg version="1.1" id="Calque_3" xmlns="http://www.w3.org/2000/svg" xmlns:xlink="http://www.w3.org/1999/xlink" x="0px" y="0px"
	  viewBox="0 0 450 240" enable-background="new 0 0 450 240" xml:space="preserve">
<g id="layer1" transform="translate(-79.31097,-665.20007)">
	<path id="path136" fill="#010101" d="M178.375,792.404c-2.12,3.723-5.088,6.184-10.52,6.184c-7.582,0-13.419-6.159-13.419-13.744
		c0-7.595,5.837-13.74,13.419-13.74c5.553,0,8.886,2.787,10.917,6.922h8.047c-2.136-8.317-9.84-14.285-19.127-14.285
		c-11.668,0-20.614,9.426-20.614,21.104c0,11.673,8.946,21.099,20.614,21.099c9.009,0,16.439-5.332,18.884-13.537L178.375,792.404
		L178.375,792.404z M512.153,805.942c-6.949,0-14.146-2.866-17.994-8.452l6.215-4.48c2.929,3.968,7.179,5.919,11.779,5.919
		c4.027,0,9.147-1.209,9.147-5.12c0-4.421-7.479-5.116-10.813-5.924c-6.611-1.611-14.09-3.041-14.09-11.669
		c0-8.456,8.115-12.475,15.589-12.475c6.897,0,12.643,2.472,16.845,7.99l-6.036,4.541c-2.705-3.448-5.915-5.516-10.809-5.516
		c-4.365,0-7.649,1.556-7.649,4.373c0,4.541,6.492,4.594,12.075,5.969c5.922,1.441,12.821,3.229,12.821,11.62
		C529.233,802.555,520.207,805.942,512.153,805.942 M481.965,778.231c0,3.388-2.759,6.147-6.151,6.147h-12.013v-12.306h12.013
		C479.206,772.073,481.965,774.833,481.965,778.231 M490.716,804.968l-8.572-14.78c4.254-2.24,7.181-6.787,7.181-11.956
		c0-7.475-6.036-13.517-13.511-13.517h-19.377v40.253h7.364v-13.235h10.697l7.582,13.235H490.716L490.716,804.968z M440.563,784.844
		c0,7.585-6.154,13.743-13.735,13.743c-7.595,0-13.744-6.158-13.744-13.743c0-7.593,6.149-13.741,13.744-13.741
		C434.409,771.102,440.563,777.25,440.563,784.844 M447.929,784.844c0-11.677-9.438-21.103-21.102-21.103
		c-11.682,0-21.099,9.426-21.099,21.103c0,11.672,9.417,21.099,21.099,21.099C438.492,805.942,447.929,796.516,447.929,784.844
		 M396.349,804.968l-13.227-18.519l-5.173,5.284v13.234h-7.362v-40.253h7.362v16.793l16.328-16.793h9.769l-15.695,16.332
		l17.086,23.921H396.349L396.349,804.968z M317.444,804.968v-40.253h7.364v32.89h17.254v7.363H317.444L317.444,804.968z
		 M278.924,804.968v-40.253h27.944v7.358h-20.59v9.088h20.59v7.364h-20.59v9.079h20.59v7.363H278.924L278.924,804.968z
		 M258.68,788.581h-10.925l5.461-13.859L258.68,788.581z M273.171,804.968l-16.157-40.253h-7.594l-16.161,40.253h7.943l3.678-9.141
		h16.674l3.678,9.141H273.171z M220.152,804.968v-16.442h-18.69v16.442h-7.358v-40.253h7.358v16.446h18.69v-16.446h7.358v40.253
		H220.152z M132.96,764.715h7.364v40.253h-7.364V764.715z M116.168,804.968v-28.979l-10.004,28.979H98.11l-9.999-28.979v28.979
		h-7.361v-40.253h10.928l10.46,28.986l10.469-28.986h10.925v40.253H116.168z"/>
</g>
</svg>
