<?xml version="1.0" standalone="no"?>
<!DOCTYPE svg PUBLIC "-//W3C//DTD SVG 20010904//EN"
 "http://www.w3.org/TR/2001/REC-SVG-20010904/DTD/svg10.dtd">
<svg version="1.0" xmlns="http://www.w3.org/2000/svg"
 width="400.000000pt" height="54.000000pt" viewBox="0 0 400.000000 54.000000"
 preserveAspectRatio="xMidYMid meet">
<metadata>
Created by potrace 1.16, written by Peter Selinger 2001-2019
</metadata>
<g transform="translate(0.000000,54.000000) scale(0.100000,-0.100000)"
fill="#000000" stroke="none">
<path d="M390 501 c-101 -22 -202 -59 -257 -94 -50 -32 -103 -95 -102 -122 0
-13 6 -7 18 21 10 22 33 52 51 67 32 28 57 36 44 15 -4 -7 -3 -8 5 -4 6 4 8
12 5 18 -5 8 -1 9 10 5 11 -5 15 -3 10 5 -5 8 -2 9 10 5 9 -4 14 -3 11 2 -7
12 31 24 46 15 8 -4 9 -3 5 4 -9 15 106 48 222 63 73 10 109 10 163 1 85 -15
140 -37 137 -54 -2 -7 3 -12 10 -10 18 3 36 -42 28 -72 -8 -34 -52 -63 -122
-81 -66 -17 -209 -21 -199 -5 3 6 14 10 24 10 10 0 40 11 67 25 58 30 60 30
43 8 -11 -15 -10 -14 9 1 22 19 30 32 12 21 -9 -5 -6 35 5 72 2 6 -4 17 -13
25 -15 12 -16 11 -3 -4 18 -23 9 -23 -31 2 -40 24 -86 25 -156 5 -29 -9 -58
-13 -64 -9 -7 5 -8 3 -3 -6 6 -10 4 -12 -8 -7 -9 3 -16 3 -14 -1 1 -4 -17 -25
-41 -46 -24 -22 -50 -53 -58 -68 -17 -33 -11 -79 12 -99 8 -6 14 -16 14 -22 0
-5 -10 -2 -22 9 -13 10 -10 4 6 -14 29 -32 43 -42 31 -22 -9 15 2 12 30 -6 14
-9 22 -20 19 -25 -3 -5 3 -6 12 -2 12 4 15 3 10 -5 -4 -8 -2 -10 7 -6 8 3 31
-2 51 -10 68 -28 187 -38 299 -25 56 7 114 13 129 13 14 1 24 3 22 5 -4 4 83
51 94 51 2 0 0 -6 -4 -12 -4 -7 -3 -9 1 -5 5 4 10 14 11 22 2 11 -11 8 -48
-11 -28 -14 -83 -32 -122 -40 -90 -19 -264 -19 -339 1 -108 28 -195 86 -211
142 -9 28 14 81 50 115 105 98 333 112 322 20 -4 -32 -56 -70 -110 -78 -21 -4
-38 -10 -38 -14 0 -5 -9 -6 -20 -3 -11 3 -20 1 -20 -5 0 -23 151 -30 239 -11
61 13 128 60 137 95 11 44 -21 90 -82 120 -74 36 -221 42 -344 15z"/>
<path d="M800 494 c0 -8 9 -14 21 -14 27 0 117 -45 147 -73 55 -50 72 -149 37
-203 -11 -17 -12 -23 -4 -18 8 5 17 9 21 9 3 0 10 4 15 9 5 6 2 6 -6 1 -11 -6
-13 -4 -8 9 20 52 18 84 -9 150 -6 15 -4 17 6 11 9 -6 11 -4 6 4 -5 7 -11 10
-14 7 -10 -10 -61 46 -55 60 3 8 0 14 -7 14 -6 0 -8 -4 -5 -10 9 -14 5 -13
-40 11 l-40 21 49 -7 c80 -11 182 -45 165 -56 -10 -6 -5 -8 16 -6 17 1 30 -3
30 -10 0 -6 4 -15 9 -20 5 -5 6 -3 2 5 -10 17 5 15 32 -4 12 -8 22 -13 22 -10
0 11 -85 59 -139 78 -31 11 -100 28 -153 38 -81 14 -98 15 -98 4z"/>
<path d="M1599 437 c-82 -23 -130 -68 -159 -148 -28 -75 -26 -111 8 -147 35
-37 86 -52 178 -52 149 0 245 59 278 169 9 30 16 63 16 73 0 33 -29 77 -63 95
-41 22 -194 28 -258 10z m131 -90 c0 -27 -37 -158 -47 -168 -15 -13 -48 -18
-62 -10 -12 8 -13 18 -2 68 8 32 20 75 28 96 13 33 19 37 49 37 29 0 34 -4 34
-23z"/>
<path d="M2113 436 c-106 -34 -162 -101 -170 -209 -5 -62 -5 -63 30 -94 43
-38 95 -48 211 -41 55 4 95 12 123 26 39 20 93 74 93 93 0 5 -42 9 -94 9 -85
0 -94 -2 -99 -20 -3 -11 -17 -25 -31 -32 -22 -9 -29 -9 -42 4 -13 13 -13 23 7
94 25 93 32 104 70 104 29 0 33 -6 29 -47 -1 -22 1 -23 94 -23 l96 0 0 34 c0
48 -38 91 -94 105 -59 15 -170 13 -223 -3z"/>
<path d="M2605 432 c-102 -35 -151 -97 -162 -204 -5 -48 -2 -57 21 -86 33 -39
78 -52 178 -52 114 0 217 42 248 100 10 19 7 20 -85 20 -78 0 -95 -3 -95 -15
0 -18 -43 -37 -65 -28 -11 4 -15 16 -13 42 l3 36 141 3 c160 3 154 -1 154 88
0 49 -34 87 -95 103 -60 16 -173 13 -230 -7z m145 -82 c0 -30 -14 -40 -56 -40
l-45 0 16 29 c8 16 23 31 32 33 21 5 53 -8 53 -22z"/>
<path d="M3125 436 c-22 -7 -51 -18 -65 -25 -30 -16 -80 -61 -80 -73 0 -4 38
-8 83 -8 71 0 87 3 102 20 12 14 31 20 57 20 37 0 39 -2 36 -27 -3 -26 -8 -29
-58 -36 -167 -24 -192 -30 -219 -53 -52 -43 -47 -109 11 -144 40 -24 123 -27
174 -5 32 13 35 13 30 0 -4 -13 8 -15 79 -15 l83 0 16 47 c32 99 54 200 49
225 -6 33 -37 62 -82 77 -44 14 -165 13 -216 -3z m108 -208 c-10 -40 -33 -58
-75 -58 -34 0 -38 3 -38 25 0 19 6 26 28 30 25 5 85 22 89 24 0 1 -1 -9 -4
-21z"/>
<path d="M3525 438 c-8 -24 -105 -341 -105 -345 0 -2 41 -2 91 -1 l92 3 33
115 c34 117 49 140 90 140 48 0 47 -28 -10 -212 l-15 -48 92 0 93 0 33 108
c18 59 35 127 38 152 4 39 1 48 -22 70 -23 22 -35 25 -98 25 -49 -1 -83 -6
-105 -19 -33 -17 -34 -17 -27 3 6 20 3 21 -85 21 -63 0 -92 -4 -95 -12z"/>
<path d="M980 426 c0 -2 8 -10 18 -17 15 -13 16 -12 3 4 -13 16 -21 21 -21 13z"/>
<path d="M274 368 l-29 -33 33 29 c30 28 37 36 29 36 -2 0 -16 -15 -33 -32z"/>
<path d="M94 348 l-29 -33 33 29 c30 28 37 36 29 36 -2 0 -16 -15 -33 -32z"/>
<path d="M769 343 c-13 -16 -12 -17 4 -4 16 13 21 21 13 21 -2 0 -10 -8 -17
-17z"/>
<path d="M1194 348 c-4 -7 -4 -10 1 -6 4 4 15 2 24 -5 14 -11 14 -10 2 6 -16
20 -18 21 -27 5z"/>
<path d="M1237 287 c3 -21 -1 -46 -11 -65 -17 -33 -33 -44 -22 -16 3 9 2 12
-5 9 -6 -4 -8 -13 -5 -20 2 -7 -3 -20 -13 -29 -24 -21 -37 -20 -20 2 13 15 12
16 -3 3 -10 -7 -15 -17 -12 -22 9 -15 -102 -61 -128 -54 -15 4 -19 3 -10 -3 9
-6 1 -12 -28 -21 -65 -19 -200 -41 -257 -41 -29 0 -53 -4 -53 -10 0 -23 209 6
335 47 113 36 199 94 231 155 16 31 19 84 5 93 -6 3 -8 -8 -4 -28z"/>
<path d="M30 247 c0 -27 83 -108 139 -137 67 -34 130 -53 266 -80 109 -22 185
-26 185 -10 0 6 -23 10 -51 10 -109 0 -323 45 -297 62 9 6 6 7 -10 3 -26 -7
-137 39 -128 54 4 5 1 13 -5 17 -8 4 -9 3 -5 -4 4 -7 3 -12 -2 -12 -14 0 -72
68 -72 85 0 7 -4 17 -10 20 -5 3 -10 0 -10 -8z"/>
<path d="M630 20 c0 -5 7 -10 15 -10 8 0 15 5 15 10 0 6 -7 10 -15 10 -8 0
-15 -4 -15 -10z"/>
</g>
</svg>
