<?xml version="1.0" standalone="no"?>
<!DOCTYPE svg PUBLIC "-//W3C//DTD SVG 20010904//EN"
 "http://www.w3.org/TR/2001/REC-SVG-20010904/DTD/svg10.dtd">
<svg version="1.0" xmlns="http://www.w3.org/2000/svg"
 width="300.000000pt" height="148.000000pt" viewBox="0 0 300.000000 148.000000"
 preserveAspectRatio="xMidYMid meet">
<metadata>
Created by potrace 1.16, written by Peter Selinger 2001-2019
</metadata>
<g transform="translate(0.000000,148.000000) scale(0.100000,-0.100000)"
fill="#000000" stroke="none">
<path d="M2025 1456 c-104 -48 -192 -177 -214 -313 -6 -37 -16 -187 -21 -333
-5 -146 -11 -274 -12 -285 -5 -35 42 -31 87 8 l40 35 7 278 c7 333 18 406 73
500 28 47 50 64 88 64 54 0 82 -82 54 -164 -17 -49 -82 -150 -117 -181 -41
-36 -80 -97 -80 -125 0 -20 17 -47 60 -94 33 -36 62 -77 66 -90 10 -42 -29
-101 -162 -247 -63 -68 -66 -73 -61 -112 5 -40 33 -87 54 -94 6 -2 36 29 66
69 30 40 89 111 131 158 97 106 116 136 116 180 0 45 -24 80 -85 126 -74 55
-115 96 -115 115 0 9 26 33 57 54 187 124 262 285 189 409 -14 25 -35 50 -46
56 -34 18 -121 11 -175 -14z"/>
<path d="M580 1151 c-126 -37 -211 -71 -352 -143 -125 -64 -189 -112 -213
-159 -17 -32 -21 -159 -5 -159 6 0 43 27 83 61 95 80 222 158 382 235 199 96
297 115 375 76 104 -52 87 -220 -37 -361 -54 -61 -138 -131 -159 -131 -11 0
-13 35 -7 213 5 193 4 214 -11 220 -19 7 -63 -8 -87 -29 -14 -13 -18 -52 -24
-258 l-7 -244 -79 -43 c-102 -57 -102 -70 4 -121 l77 -38 0 -124 0 -125 32 10
c54 15 80 50 84 110 1 30 6 55 11 56 5 2 81 -31 168 -72 95 -46 169 -75 183
-73 28 3 64 60 55 86 -4 8 -98 59 -210 114 l-203 98 0 63 0 64 53 33 c69 45
192 170 242 245 78 118 94 214 50 301 -60 121 -201 154 -405 95z"/>
<path d="M2902 1154 c-18 -12 -22 -24 -20 -52 7 -79 109 -81 116 -3 6 60 -46
90 -96 55z m38 -13 c-20 -6 -25 -14 -25 -38 0 -17 -3 -29 -7 -26 -12 7 -9 48
4 61 7 7 21 12 33 11 17 -1 16 -2 -5 -8z m44 -45 c-3 -9 -10 -13 -16 -10 -5 3
-4 12 3 20 15 18 22 13 13 -10z m-30 -21 c3 -9 0 -15 -9 -15 -9 0 -12 6 -9 15
4 8 7 15 9 15 2 0 5 -7 9 -15z"/>
<path d="M2762 930 c-20 -32 -40 -59 -44 -60 -4 0 -8 16 -10 36 -2 22 -10 42
-20 48 -25 15 -54 -16 -98 -106 -38 -78 -63 -94 -68 -43 -1 17 -7 47 -12 68
-9 29 -16 37 -34 37 -13 0 -29 -7 -36 -15 -7 -8 -25 -15 -40 -15 -35 0 -103
-50 -133 -97 -49 -78 -59 -145 -29 -183 26 -32 61 -18 130 54 l59 61 12 -27
c28 -62 80 -56 131 13 16 23 30 35 30 27 0 -8 9 -23 19 -32 16 -14 23 -15 40
-6 25 13 73 76 91 120 17 40 27 38 39 -7 26 -95 78 -110 143 -42 21 22 37 46
35 52 -2 7 -19 12 -38 12 -33 0 -34 2 -50 61 -34 126 -60 136 -117 44z m-376
-184 c-28 -48 -56 -67 -56 -38 0 34 70 115 78 91 2 -5 -8 -29 -22 -53z"/>
<path d="M1569 715 c-14 -8 -34 -25 -43 -39 -56 -86 48 -142 133 -71 80 68 4
161 -90 110z"/>
<path d="M1403 678 c-6 -7 -28 -46 -49 -87 -21 -40 -44 -76 -52 -79 -19 -7
-32 16 -32 55 0 44 -9 63 -30 63 -23 0 -44 -27 -58 -75 -13 -46 -47 -105 -61
-105 -10 0 -26 38 -39 90 -7 29 -13 35 -39 38 -18 2 -37 -3 -46 -12 -9 -9 -31
-16 -51 -16 -82 0 -168 -135 -144 -227 17 -65 90 -53 158 25 22 25 42 43 43
41 2 -2 11 -16 20 -31 28 -45 67 -38 118 21 l43 50 18 -30 c27 -45 64 -38 103
20 l25 36 0 -228 0 -227 49 0 c28 0 52 3 54 8 3 4 6 158 8 342 4 300 2 335
-12 338 -9 1 -21 -3 -26 -10z m-413 -193 c0 -30 -73 -125 -86 -112 -10 9 14
69 38 94 19 21 48 31 48 18z"/>
</g>
</svg>
