<?xml version="1.0" standalone="no"?>
<!DOCTYPE svg PUBLIC "-//W3C//DTD SVG 20010904//EN"
 "http://www.w3.org/TR/2001/REC-SVG-20010904/DTD/svg10.dtd">
<svg version="1.0" xmlns="http://www.w3.org/2000/svg"
 width="4993.000000pt" height="5000.000000pt" viewBox="0 0 4993.000000 5000.000000"
 preserveAspectRatio="xMidYMid meet">
<metadata>
Created by potrace 1.16, written by Peter Selinger 2001-2019
</metadata>
<g transform="translate(0.000000,5000.000000) scale(0.100000,-0.100000)"
fill="#000000" stroke="none">
<path d="M0 25000 c0 -17427 3 -25000 10 -25000 6 0 95 38 198 84 4850 2185
9696 3660 14847 4520 3458 578 7187 859 10681 807 1044 -15 1831 -43 2759 -97
7229 -417 14186 -2110 20725 -5044 583 -262 610 -273 614 -269 10 10 16 1904
21 6019 3 2439 7 5229 10 6200 3 971 7 3324 10 5230 9 5849 26 15139 45 25590
6 2731 10 5414 10 5963 l0 997 -24965 0 -24965 0 0 -25000z m21260 9195 l0
-1745 -574 0 -574 0 -12 73 c-91 548 -332 1114 -636 1492 -299 372 -673 614
-1115 720 -224 53 -284 57 -1001 62 l-668 5 0 -1832 0 -1832 293 5 c285 4 294
4 376 31 157 51 288 133 397 247 102 107 163 208 211 346 26 77 27 83 31 376
l4 297 579 0 579 0 0 -1880 0 -1880 -577 2 -578 3 -6 295 c-5 287 -6 297 -32
373 -80 230 -227 405 -439 521 -165 91 -246 106 -575 106 l-263 0 0 -1825 0
-1825 648 0 c375 0 685 4 737 10 354 40 638 140 925 326 155 100 389 327 522
504 191 257 348 567 458 907 46 141 112 407 131 526 l12 77 573 0 574 0 0
-1752 0 -1751 -3142 6 c-1729 4 -3774 7 -4546 7 l-1402 0 2 573 3 572 210 6
c233 7 272 15 401 83 192 101 337 284 411 522 l28 89 0 3510 c0 3005 -2 3519
-14 3575 -58 265 -239 498 -464 600 -117 53 -168 62 -379 67 l-198 5 0 574 0
574 4545 0 4545 0 0 -1745z m-10054 1638 c-39 -558 -167 -1160 -386 -1813
-338 -1010 -916 -2074 -1614 -2970 -95 -122 -321 -401 -352 -435 -11 -11 -46
-52 -79 -90 -33 -39 -70 -81 -83 -95 -40 -43 -382 -467 -533 -660 -118 -151
-389 -511 -531 -705 -219 -298 -563 -809 -736 -1091 -429 -703 -651 -1206
-706 -1601 l-6 -43 782 0 c810 0 878 3 1088 44 318 63 613 207 862 423 428
371 732 973 854 1691 13 79 24 154 24 168 l0 24 575 0 575 0 0 -1750 0 -1750
-4409 0 -4409 0 -6 31 c-16 83 1 426 35 699 128 1024 562 2164 1237 3245 207
331 455 683 714 1013 209 266 434 531 633 747 202 219 312 345 516 590 369
442 737 932 1014 1352 427 647 740 1247 898 1723 30 91 57 178 61 194 l7 28
-638 -5 c-363 -3 -681 -10 -738 -16 -398 -45 -721 -147 -1041 -329 -61 -36
-255 -173 -284 -202 -3 -3 -26 -23 -51 -46 -264 -238 -491 -569 -648 -946 -80
-194 -165 -499 -191 -683 -6 -44 -13 -90 -16 -102 l-4 -23 -530 0 -530 0 0
1740 0 1740 4326 0 4326 0 -6 -97z m16934 -472 l0 -569 -197 -4 c-178 -5 -207
-8 -288 -32 -289 -87 -519 -305 -617 -587 l-33 -94 0 -3510 0 -3510 23 -75
c92 -290 316 -510 627 -613 50 -16 96 -21 273 -24 l212 -5 0 -574 0 -574
-2867 2 -2868 3 0 570 0 570 225 6 c207 5 232 8 315 33 284 86 494 301 577
591 l23 80 0 3520 0 3520 -28 90 c-83 266 -251 450 -498 548 -121 48 -191 60
-409 66 l-205 6 -3 568 -2 567 2870 0 2870 0 0 -569z m9620 -1171 l0 -1740
-535 0 -535 0 0 24 c0 13 -7 63 -15 112 -118 690 -445 1296 -903 1673 -356
292 -754 454 -1277 518 -176 21 -1405 32 -1405 12 0 -30 52 -228 96 -362 138
-424 385 -926 689 -1397 125 -194 139 -214 269 -400 210 -300 595 -792 782
-1000 17 -19 89 -100 159 -180 71 -80 163 -181 204 -225 198 -208 236 -250
351 -385 67 -80 133 -157 146 -172 27 -31 339 -419 369 -459 266 -351 336
-446 417 -559 588 -833 998 -1612 1211 -2300 81 -259 131 -489 168 -770 17
-125 17 -518 0 -640 -38 -278 -135 -559 -247 -712 l-34 -48 -4150 0 -4150 0 2
1748 3 1747 575 0 574 0 17 -120 c54 -375 161 -720 325 -1048 309 -616 785
-1003 1395 -1132 190 -41 285 -45 1093 -45 l779 0 -7 63 c-48 472 -517 1374
-1259 2422 -58 83 -117 166 -130 185 -91 127 -543 724 -694 915 -262 330 -277
348 -478 580 -961 1105 -1569 2023 -1932 2920 -348 860 -426 1663 -217 2247
25 69 85 198 115 246 l14 22 4107 0 4108 0 0 -1740z m9700 0 l0 -1740 -575 0
-574 0 -5 33 c-3 17 -13 77 -22 132 -75 461 -274 939 -537 1288 -380 505 -887
788 -1562 873 -177 22 -1395 33 -1395 12 0 -27 89 -345 130 -463 256 -738 755
-1579 1489 -2505 160 -202 487 -584 625 -730 170 -179 640 -752 887 -1080 839
-1112 1361 -2109 1567 -2990 107 -455 122 -921 41 -1284 -40 -183 -130 -399
-208 -503 l-37 -48 -4147 -3 -4147 -2 0 1750 0 1750 573 0 573 0 28 -152 c34
-181 97 -415 159 -588 316 -882 883 -1434 1617 -1573 179 -34 256 -37 1032
-37 l778 0 -6 58 c-19 167 -118 465 -246 747 -53 116 -170 347 -203 400 -7 11
-26 45 -42 75 -171 314 -497 819 -847 1310 -362 509 -945 1260 -1187 1530
-171 191 -510 596 -644 771 -107 139 -357 476 -414 559 -736 1061 -1141 1995
-1232 2845 -15 140 -15 484 0 595 37 275 114 522 211 678 l20 32 4150 0 4150
0 0 -1740z"/>
</g>
</svg>
