<?xml version="1.0" standalone="no"?>
<!DOCTYPE svg PUBLIC "-//W3C//DTD SVG 20010904//EN"
 "http://www.w3.org/TR/2001/REC-SVG-20010904/DTD/svg10.dtd">
<svg version="1.0" xmlns="http://www.w3.org/2000/svg"
 width="3840.000000pt" height="2160.000000pt" viewBox="0 0 3840.000000 2160.000000"
 preserveAspectRatio="xMidYMid meet">
<metadata>
Created by potrace 1.16, written by Peter Selinger 2001-2019
</metadata>
<g transform="translate(0.000000,2160.000000) scale(0.100000,-0.100000)"
fill="#000000" stroke="none">
<path d="M20215 21342 c-27 -15 -52 -28 -53 -29 -2 -1 5 -38 16 -82 20 -77 92
-250 118 -281 10 -12 10 -21 -2 -46 -35 -72 -784 -785 -1160 -1105 -143 -121
-141 -119 -226 -181 -86 -62 -172 -130 -368 -293 -232 -193 -584 -465 -602
-465 -9 0 -59 11 -110 25 -51 14 -110 25 -130 25 -138 0 -378 -183 -398 -303
-4 -23 -16 -63 -26 -89 -17 -46 -17 -49 1 -125 21 -89 22 -91 30 -119 7 -22 0
-29 -225 -223 -36 -31 -94 -83 -130 -117 -36 -33 -78 -64 -93 -68 -24 -6 -27
-11 -27 -51 0 -25 -4 -45 -10 -45 -6 0 -10 -53 -10 -138 l0 -139 63 -59 c34
-32 78 -73 97 -89 35 -31 98 -65 119 -65 6 0 11 -5 11 -11 0 -5 4 -7 10 -4 12
8 56 -64 52 -85 -2 -8 -19 -27 -37 -42 -17 -15 -50 -50 -71 -78 -28 -37 -58
-62 -107 -87 -56 -30 -75 -47 -105 -92 -45 -71 -71 -146 -65 -195 2 -21 -1
-43 -6 -50 -5 -6 -17 -40 -26 -76 -20 -78 -39 -112 -74 -133 -30 -19 -101 -85
-151 -142 -19 -22 -54 -56 -78 -75 l-43 -35 -2 -84 c-1 -70 2 -85 17 -96 12
-10 17 -24 15 -52 -1 -21 8 -70 20 -110 l22 -72 87 -60 c83 -58 88 -60 140
-56 52 4 56 2 86 -31 29 -34 79 -68 87 -60 2 2 19 6 37 9 43 7 67 -16 77 -74
4 -24 14 -56 21 -71 8 -16 12 -28 8 -28 -4 0 -2 -6 4 -12 13 -17 44 -157 37
-168 -3 -4 0 -10 5 -12 6 -2 12 -14 14 -28 2 -14 8 -36 14 -50 19 -41 72 -242
67 -250 -3 -5 -1 -10 3 -12 7 -3 53 -159 57 -198 1 -8 5 -22 8 -30 18 -41 72
-225 88 -298 11 -46 35 -115 54 -153 69 -136 77 -164 64 -227 -10 -50 -9 -67
10 -137 37 -137 38 -130 -5 -192 l-39 -57 0 -105 c0 -119 6 -181 18 -181 4 0
7 -6 7 -14 0 -37 62 -222 91 -273 19 -32 33 -61 31 -65 -1 -5 2 -8 7 -8 8 0
23 -30 26 -50 0 -3 5 -12 10 -20 15 -23 7 -233 -11 -303 -17 -66 -71 -329 -80
-386 -9 -63 -53 -257 -67 -297 -8 -21 -48 -127 -89 -234 -78 -201 -101 -274
-113 -348 -10 -61 -8 -178 4 -237 7 -38 6 -54 -5 -69 -10 -15 -14 -52 -14
-128 0 -105 1 -108 24 -114 18 -4 27 -16 35 -50 6 -25 9 -49 6 -54 -3 -5 -1
-11 4 -14 5 -3 12 -30 16 -59 8 -59 10 -71 26 -144 5 -29 8 -57 5 -62 -4 -5
-1 -13 4 -16 6 -4 10 -17 9 -28 -1 -12 1 -29 4 -37 4 -8 9 -33 11 -55 3 -22
13 -74 22 -115 13 -58 14 -89 7 -137 -18 -120 21 -216 93 -229 88 -15 134 -46
134 -90 0 -48 107 -125 215 -155 85 -23 104 -18 141 44 17 29 54 90 82 136 29
46 52 88 52 93 0 16 -65 48 -97 48 -22 0 -44 -10 -68 -31 -30 -26 -40 -30 -69
-25 -75 14 -166 109 -166 173 0 30 -9 45 -59 94 l-58 59 -6 77 c-3 43 -13 137
-23 208 -9 72 -16 167 -15 212 1 45 0 87 -3 92 -4 6 -22 5 -48 -5 -66 -23
-132 -19 -165 12 -15 14 -22 23 -15 19 27 -14 79 -14 140 0 35 8 75 15 89 15
24 0 25 2 19 43 -4 23 -16 57 -27 75 -13 23 -19 52 -19 92 0 33 -7 105 -16
161 -10 61 -15 135 -12 183 4 69 10 92 44 160 33 67 54 92 139 170 186 169
497 496 525 550 8 16 27 37 42 45 16 9 28 19 28 24 0 11 38 8 45 -4 4 -6 13
-8 21 -5 32 12 201 -29 224 -55 3 -3 20 -11 38 -18 17 -8 32 -18 32 -24 0 -6
3 -8 6 -4 4 3 37 -10 75 -29 38 -19 69 -31 69 -28 0 4 6 1 13 -5 8 -6 16 -8
19 -5 8 7 29 -56 23 -66 -3 -5 0 -10 5 -12 6 -2 12 -10 14 -18 1 -8 14 -39 29
-68 15 -29 25 -57 22 -62 -4 -6 -1 -10 4 -10 6 0 10 -3 9 -7 -1 -5 7 -26 17
-48 15 -33 19 -68 21 -210 1 -154 -1 -178 -23 -259 -32 -113 -59 -174 -91
-209 -23 -24 -27 -37 -27 -95 -1 -37 3 -72 7 -78 5 -7 10 -26 11 -43 1 -17 5
-31 10 -31 4 0 7 -5 7 -11 0 -6 9 -31 20 -57 17 -39 28 -50 68 -67 66 -28 162
-26 222 5 57 28 51 21 61 75 11 61 -2 127 -35 165 -39 47 -36 100 14 194 22
41 40 89 40 106 0 41 13 38 29 -7 8 -21 20 -46 29 -55 8 -10 11 -18 6 -18 -5
0 -4 -4 3 -8 6 -4 28 -41 47 -82 41 -84 46 -142 21 -224 -8 -27 -15 -82 -15
-122 0 -70 -13 -102 -30 -74 -6 10 -21 6 -63 -15 -64 -31 -159 -43 -206 -27
-28 10 -31 9 -32 -11 -2 -26 -3 -17 11 -103 17 -107 73 -205 125 -218 13 -3
37 -11 52 -18 15 -6 30 -12 33 -13 34 -8 78 -47 111 -98 l40 -62 -30 -3 c-37
-4 -52 -29 -100 -167 -39 -111 -67 -159 -120 -208 -30 -28 -45 -53 -60 -101
-32 -105 -43 -183 -36 -262 6 -58 4 -77 -9 -95 -22 -32 -20 -85 3 -108 24 -24
102 -41 185 -41 58 0 64 2 70 23 10 38 7 82 -9 103 -33 44 -4 111 72 162 63
42 68 55 60 171 -9 118 2 152 73 225 72 76 78 94 50 149 l-22 42 23 -20 c13
-11 32 -28 42 -38 14 -13 22 -15 31 -8 7 6 16 8 19 4 4 -3 7 -1 7 5 0 7 6 12
14 12 7 0 35 19 61 42 53 47 98 129 89 165 -5 17 3 30 30 54 34 30 36 34 36
96 0 84 -16 135 -51 169 -16 15 -30 26 -32 23 -2 -2 -18 -30 -37 -61 -19 -32
-38 -58 -42 -58 -4 0 0 -17 9 -37 15 -38 15 -38 -5 -20 -17 16 -30 17 -89 12
-67 -7 -68 -7 -128 33 -86 59 -113 87 -125 133 -6 23 -9 43 -7 46 3 2 19 -16
37 -42 31 -46 33 -46 73 -40 93 16 120 50 157 196 11 46 38 120 59 164 73 154
76 191 23 350 -17 50 -42 160 -57 245 -14 85 -33 181 -41 213 -11 42 -12 68
-5 90 20 67 20 77 2 77 -10 0 -22 -10 -28 -22 -8 -18 -14 -3 -32 86 -34 158
-28 208 36 318 45 79 51 94 56 167 8 108 23 133 94 165 32 15 71 33 87 41 34
18 36 17 40 -26 2 -19 6 -41 9 -49 5 -13 41 -229 52 -305 5 -37 49 -211 63
-247 12 -30 32 -37 86 -27 72 13 102 48 217 252 83 146 102 198 103 278 0 52
-6 77 -27 121 -15 30 -27 70 -27 89 0 19 -4 48 -9 65 -7 25 -5 33 10 42 10 7
21 12 23 12 4 0 39 -126 38 -134 -1 -3 19 -40 44 -82 65 -110 84 -165 82 -232
-1 -33 8 -93 21 -141 12 -46 19 -86 16 -89 -2 -3 0 -11 6 -18 5 -6 12 -36 15
-66 2 -29 7 -73 10 -98 4 -32 -6 -95 -35 -224 -48 -209 -50 -262 -16 -376 14
-46 25 -96 25 -112 0 -24 7 -32 38 -45 20 -8 64 -18 97 -20 51 -4 64 -2 87 16
16 13 30 36 34 57 4 20 24 54 50 83 74 82 77 113 26 265 l-26 80 38 145 c20
80 45 157 54 170 38 53 42 68 42 157 0 70 5 102 20 135 11 24 20 60 20 80 0
19 11 109 25 200 20 136 32 185 70 284 193 498 233 641 242 870 8 207 -23 347
-119 539 -77 154 -136 238 -231 331 -51 50 -125 128 -165 175 -105 122 -224
224 -314 269 -74 38 -187 69 -383 105 -78 15 -81 17 -130 71 -57 63 -87 75
-185 75 -112 0 -110 -2 -110 101 0 110 -14 178 -48 226 -20 30 -25 48 -24 88
2 41 -2 53 -21 70 -13 12 -32 51 -46 95 -21 67 -31 82 -91 140 -37 36 -73 75
-79 88 -7 13 -11 52 -10 88 2 62 1 66 -33 102 -20 21 -43 60 -53 90 -17 53
-17 54 4 76 17 18 29 56 18 56 -1 0 -16 -4 -34 -9 -43 -12 -49 13 -14 52 41
45 36 112 -17 211 -45 85 -53 137 -27 172 24 32 18 67 -21 112 -42 50 -41 72
9 142 28 39 32 54 34 115 2 84 15 109 70 142 23 13 55 39 69 56 25 30 26 36
21 107 -8 129 -96 320 -156 343 -16 6 -36 26 -47 44 -26 50 -74 88 -175 138
-52 27 -114 68 -149 100 -67 61 -96 78 -194 111 -58 20 -89 24 -193 24 -67 0
-143 5 -167 12 -42 11 -47 10 -84 -16 l-39 -27 -69 71 c-112 117 -121 140 -87
247 18 58 17 62 -38 154 l-21 36 62 59 c35 32 68 58 74 56 6 -2 8 -1 5 3 -9 9
70 80 166 150 44 32 161 124 260 204 221 179 296 238 359 281 27 18 94 76 150
130 55 53 144 130 196 172 52 41 151 126 220 187 69 62 159 140 200 173 41 33
189 171 328 306 241 235 282 271 309 272 22 0 72 -64 92 -120 23 -62 56 -109
109 -155 l35 -29 46 25 c41 23 46 30 49 65 2 29 -5 54 -27 94 -17 30 -43 82
-57 115 -50 110 -295 590 -311 608 -21 22 -28 21 -88 -11z m-2145 -2757 c0 -2
-17 -9 -39 -15 -21 -5 -55 -22 -76 -36 -39 -26 -65 -26 -65 1 0 10 10 15 28
15 15 0 45 9 67 19 37 18 85 27 85 16z m-273 -102 c8 -21 -11 -36 -123 -99
-92 -51 -180 -124 -203 -168 -8 -14 -18 -26 -23 -26 -52 0 138 204 239 258 34
18 65 37 68 42 10 16 35 12 42 -7z m540 -476 c-2 -27 -10 -55 -18 -62 -12 -12
-13 -2 -4 71 7 67 11 80 18 62 5 -13 7 -45 4 -71z m-957 27 c0 -24 3 -26 28
-21 104 20 95 22 117 -25 15 -32 27 -44 48 -48 33 -6 100 -57 92 -71 -4 -5 -2
-9 3 -9 5 0 22 -18 37 -40 22 -32 34 -40 58 -40 41 0 112 35 131 66 16 23 18
24 47 9 27 -14 29 -20 25 -55 -3 -21 -12 -52 -20 -69 -9 -16 -16 -51 -16 -76
0 -30 -9 -63 -26 -96 -24 -45 -26 -57 -20 -122 3 -40 7 -85 9 -101 2 -24 -3
-31 -23 -36 -13 -3 -43 -29 -65 -57 -22 -27 -51 -57 -65 -66 -24 -15 -28 -14
-57 4 -41 26 -46 44 -38 135 8 79 -10 194 -30 194 -6 0 -21 -7 -34 -16 -13 -9
-51 -31 -84 -49 -34 -18 -84 -44 -111 -59 -27 -14 -50 -26 -52 -26 -5 0 -109
171 -131 215 -11 22 -23 69 -25 107 -4 47 -12 76 -28 98 -31 44 -21 69 56 137
37 32 87 77 113 100 25 24 49 43 54 43 4 0 7 -12 7 -26z m1181 -107 c30 -37
33 -48 37 -122 l4 -82 -32 -12 c-18 -6 -63 -11 -100 -11 l-67 0 -37 -88 c-26
-63 -36 -103 -36 -140 0 -29 -4 -52 -8 -52 -5 0 -44 25 -87 55 -100 69 -135
73 -158 18 l-15 -38 -1 52 c-1 56 15 83 50 83 15 0 19 7 19 33 l0 32 25 -41
c27 -46 123 -151 106 -117 -15 31 -13 100 4 151 8 23 13 53 9 66 -3 13 -1 27
4 30 6 3 56 14 111 23 96 17 101 19 111 47 5 16 10 70 11 120 1 68 3 84 9 62
5 -16 24 -47 41 -69z m641 -19 c-6 -6 -33 -23 -59 -37 -53 -29 -93 -81 -93
-119 0 -14 -12 -38 -27 -54 -25 -26 -26 -29 -13 -68 12 -36 11 -42 -6 -61 -10
-12 -35 -28 -54 -36 -19 -8 -69 -41 -110 -72 -102 -79 -273 -191 -360 -237
-63 -33 -73 -35 -86 -22 -13 13 -12 14 13 11 19 -3 45 7 83 31 30 19 87 54
125 78 39 24 132 89 209 146 102 76 135 107 127 115 -6 6 -11 19 -11 29 0 13
-8 18 -26 18 -16 0 -43 15 -72 41 -26 23 -71 55 -99 71 -29 17 -63 44 -75 61
l-23 32 36 -28 c38 -29 69 -35 69 -15 0 7 15 -10 34 -38 40 -59 98 -94 122
-73 8 6 17 9 20 6 4 -3 23 3 44 13 29 15 47 36 77 92 34 65 44 76 93 100 59
29 81 35 62 16z m-2191 -300 c-5 -14 -16 -28 -25 -31 -11 -5 -10 2 6 29 23 39
34 40 19 2z m41 -118 c-4 -25 -9 -30 -33 -30 -16 0 -29 5 -29 12 0 18 31 48
50 48 13 0 16 -7 12 -30z m1163 -354 c57 -15 131 -47 159 -69 18 -13 12 -13
-50 0 -38 8 -101 17 -140 20 -81 6 -80 7 -144 -114 -18 -35 -37 -63 -41 -63
-17 0 -9 66 15 116 13 28 38 67 56 87 36 42 61 46 145 23z m968 -54 c-48 -42
-52 -56 -22 -73 20 -10 16 -13 -42 -36 -35 -14 -68 -29 -73 -34 -6 -5 -52 -9
-102 -9 -77 0 -112 -6 -208 -35 -64 -19 -134 -35 -157 -35 -44 0 -70 -11 -109
-44 -20 -17 -19 -14 5 14 41 47 40 47 100 54 29 3 91 17 138 31 47 13 91 26
98 27 8 2 16 5 19 8 10 11 195 85 208 84 7 -1 11 1 8 4 -5 4 154 78 174 80 3
1 -14 -16 -37 -36z m-1549 -129 c21 -24 33 -43 27 -43 -9 0 -208 145 -236 172
-5 6 31 -12 80 -39 55 -29 106 -65 129 -90z m-135 -172 c11 -7 9 -18 -15 -57
-28 -44 -34 -48 -89 -60 -76 -16 -75 -16 -75 -3 0 5 4 8 8 5 5 -3 13 15 20 38
8 31 21 50 44 65 34 22 83 27 107 12z m638 -32 l63 -41 31 26 c26 22 40 26 91
26 76 0 70 -8 -12 -20 -34 -5 -70 -16 -79 -24 -34 -31 -91 -14 -145 43 -40 42
-25 39 51 -10z m1093 -52 c0 -24 -30 -56 -92 -96 -61 -40 -66 -41 -146 -41
-93 0 -206 -31 -277 -77 l-40 -26 35 38 c39 42 146 96 197 98 18 1 33 5 33 8
0 3 33 13 73 22 39 10 99 33 132 52 65 37 85 42 85 22z m-1003 -232 c17 -38
66 -95 83 -95 16 0 20 -35 20 -167 0 -109 3 -140 17 -164 10 -16 21 -29 25
-29 4 0 17 -19 29 -42 16 -32 20 -53 16 -88 -7 -58 -56 -182 -70 -177 -29 9
-49 59 -62 153 -8 54 -24 126 -35 159 -42 121 -80 270 -80 315 0 26 -11 79
-24 118 -22 65 -23 72 -8 73 13 0 12 2 -4 9 -14 5 -25 23 -32 51 l-11 43 59
-60 c32 -32 67 -77 77 -99z m-711 17 c-45 -57 -210 -222 -272 -273 -18 -14
-44 -45 -58 -67 -27 -43 -31 -45 -79 -42 -20 1 -38 -9 -64 -35 -34 -34 -35
-38 -30 -85 6 -47 5 -49 -14 -37 -18 11 -39 63 -39 98 0 22 65 79 93 81 12 1
29 2 37 4 8 1 21 2 28 3 17 1 6 43 -31 114 -37 71 -121 149 -184 173 -60 22
-80 39 -36 31 100 -19 214 -114 319 -266 4 -4 81 69 239 227 72 72 131 131
133 131 2 1 -17 -25 -42 -57z m189 -9 c-29 -46 -85 -115 -139 -171 -56 -59
-136 -119 -136 -103 0 11 278 301 287 301 3 0 -3 -12 -12 -27z m-878 -29 c-3
-3 -12 -4 -19 -1 -8 3 -5 6 6 6 11 1 17 -2 13 -5z m2473 -58 c0 -2 2 -11 5
-19 5 -11 -10 -15 -71 -21 -79 -6 -153 -33 -217 -78 -22 -15 -28 -17 -18 -5
19 23 7 23 -135 -8 -64 -14 -138 -25 -166 -25 -51 0 -61 9 -16 14 13 1 28 5
33 8 8 5 256 75 290 82 6 2 30 9 55 16 25 7 52 14 60 15 8 1 22 5 32 9 9 4 30
5 47 3 17 -3 31 -1 31 4 0 5 16 9 35 9 19 0 35 -2 35 -4z m-1266 -152 c-21
-77 -74 -136 -167 -182 -72 -35 -151 -67 -123 -49 110 72 198 164 264 275 30
51 38 60 40 42 2 -12 -4 -51 -14 -86z m906 -24 c-197 -175 -286 -230 -368
-230 -54 0 -73 16 -31 25 59 13 158 62 242 122 75 52 185 120 197 122 3 0 -15
-18 -40 -39z m-2110 -129 c0 -33 -11 -44 -60 -60 -37 -12 -75 -54 -65 -71 9
-14 -7 -12 -27 4 -24 18 -23 21 13 77 21 33 39 50 60 54 16 4 31 11 34 16 4 5
15 9 26 9 14 0 19 -7 19 -29z m477 -143 c29 -33 55 -87 49 -104 -3 -8 -1 -14
3 -14 10 0 19 -42 27 -126 3 -27 6 -58 7 -69 2 -11 6 -26 11 -33 4 -7 5 -16 2
-19 -3 -3 -2 -11 3 -17 9 -10 44 -179 56 -266 2 -19 15 -89 29 -155 13 -66 22
-123 20 -127 -2 -4 0 -9 5 -12 17 -11 1 -353 -20 -432 -10 -38 -19 -86 -19
-105 0 -26 -6 -37 -24 -45 -24 -11 -24 -11 -105 230 -44 132 -97 299 -117 370
-20 71 -43 145 -51 164 -8 20 -24 81 -34 136 -11 56 -26 121 -34 146 -26 80
-46 193 -47 263 0 57 4 74 26 107 27 41 148 130 177 130 8 0 25 -10 36 -22z
m2143 -26 c0 -14 -63 -73 -94 -88 -25 -12 -19 -4 27 40 59 57 67 63 67 48z
m120 -204 c0 -32 -9 -68 -25 -103 -31 -65 -49 -82 -69 -65 -13 10 -10 21 20
74 29 53 34 73 34 127 l1 64 19 -24 c14 -16 20 -38 20 -73z m-410 -13 c-13
-14 -26 -23 -28 -20 -3 3 5 16 18 30 13 14 26 23 28 20 3 -3 -5 -16 -18 -30z
m526 -200 c4 -30 2 -50 -6 -60 -6 -7 -20 -35 -30 -62 -17 -44 -19 -45 -20 -18
0 43 32 195 41 189 4 -2 11 -25 15 -49z m-1264 -495 c27 -40 48 -91 73 -180
46 -163 46 -198 -2 -250 -20 -23 -45 -46 -56 -52 -20 -10 -19 -9 2 28 21 35
22 46 16 124 -12 145 -33 239 -69 314 -19 39 -38 89 -41 111 l-6 40 23 -40
c13 -22 40 -65 60 -95z m1238 79 c0 -33 -20 -88 -46 -122 -15 -21 -16 -20 -11
33 7 97 57 174 57 89z m-610 -279 c26 -91 52 -181 56 -200 l7 -35 -28 33 c-45
53 -52 44 -51 -65 1 -88 4 -103 29 -145 18 -31 35 -48 47 -48 20 0 24 -10 34
-82 2 -21 19 -58 36 -83 17 -25 28 -45 25 -45 -4 0 18 -21 47 -47 47 -40 53
-50 50 -76 l-5 -30 -18 38 c-21 42 -47 75 -61 75 -23 0 -17 -36 14 -88 19 -31
45 -84 58 -117 13 -33 29 -67 35 -75 7 -8 22 -33 33 -55 44 -86 188 -202 167
-134 -12 38 15 10 32 -33 22 -55 77 -89 126 -78 123 27 178 129 142 263 -34
130 -84 178 -95 92 l-5 -40 -13 57 c-7 32 -24 77 -37 102 -15 28 -20 47 -14
53 6 6 2 51 -11 123 -11 62 -20 116 -21 119 0 3 -10 -14 -21 -39 -11 -25 -22
-39 -25 -33 -9 26 30 133 108 295 72 148 82 175 90 248 14 119 23 126 43 31
l17 -80 -42 -98 c-46 -109 -54 -176 -25 -233 20 -41 20 -38 -5 -42 -15 -2 -26
-18 -40 -58 -28 -80 -25 -103 21 -162 69 -86 170 -321 170 -392 0 -55 43 -35
59 28 16 64 14 223 -4 282 -8 27 -30 68 -48 89 -33 39 -67 96 -67 112 0 4 11
-9 25 -30 31 -45 71 -67 124 -67 51 0 106 46 156 132 45 76 46 125 4 284 -37
142 -58 234 -53 234 8 0 80 -141 101 -197 68 -189 45 -339 -78 -486 -24 -28
-28 -30 -44 -17 -15 13 -20 11 -44 -18 -26 -33 -26 -34 -25 -195 2 -201 0
-186 26 -196 19 -7 27 -3 46 26 13 19 30 51 37 71 l14 37 0 -46 c2 -81 -10
-111 -60 -161 -43 -43 -47 -51 -43 -85 4 -37 4 -37 -15 12 -11 28 -20 63 -20
79 -1 28 -2 28 -46 23 -41 -4 -53 -12 -108 -69 -52 -54 -71 -67 -114 -78 -47
-12 -53 -17 -53 -40 0 -35 59 -150 115 -225 25 -33 55 -80 66 -105 45 -96 99
-221 102 -233 1 -6 5 -15 10 -18 4 -3 25 -45 47 -95 45 -102 49 -104 159 -93
51 5 68 12 83 30 l19 24 -7 -30 c-4 -16 -17 -38 -29 -48 -28 -21 -25 -42 22
-119 66 -108 15 -92 -67 22 l-45 62 -80 -7 c-44 -4 -95 -13 -114 -21 -38 -16
-46 -12 -56 28 -6 24 -3 29 29 42 20 8 36 21 36 28 -1 41 -71 176 -282 545
-53 94 -107 192 -119 216 -21 42 -24 45 -84 57 l-62 13 -81 106 c-159 209
-251 389 -262 514 -6 67 -12 86 -40 125 -19 26 -52 73 -74 105 l-41 59 -5 136
c-6 163 -18 194 -111 296 -43 47 -72 69 -101 78 -29 8 -47 22 -64 50 -29 46
-29 47 -1 44 91 -10 156 -56 232 -161 48 -68 69 -85 105 -85 21 0 21 3 15 52
-9 64 -30 126 -51 149 -13 15 -13 20 3 54 l18 37 13 -54 c7 -29 35 -127 62
-218z m962 93 c40 -74 58 -160 57 -268 -1 -49 -1 -48 -24 40 -13 50 -42 134
-64 187 -46 110 -48 121 -24 116 10 -2 34 -35 55 -75z m-1161 -447 c-38 -109
-166 -248 -240 -261 -50 -8 -181 -85 -230 -134 -101 -101 -158 -194 -186 -301
-9 -36 -23 -76 -31 -90 -13 -23 -14 -21 -8 30 17 161 61 258 164 360 159 157
234 212 353 260 69 27 133 93 168 174 30 69 38 41 10 -38z m-1207 -451 c26
-33 95 -169 100 -197 2 -7 6 -21 10 -30 4 -9 9 -23 10 -32 1 -8 5 -19 9 -22 4
-4 7 -18 7 -30 0 -13 4 -26 10 -29 17 -10 31 -83 23 -116 l-8 -31 -44 76 c-24
42 -65 132 -91 200 -26 69 -56 139 -67 156 -17 27 -19 37 -10 61 6 16 14 29
18 29 4 0 19 -16 33 -35z m1302 -86 c-9 -118 -30 -228 -61 -319 -19 -57 -37
-85 -78 -129 -29 -31 -58 -65 -64 -76 -7 -11 -14 -17 -17 -15 -9 9 52 175 95
262 57 113 85 192 94 262 6 56 22 106 33 106 3 0 2 -41 -2 -91z m1645 -83 c0
-11 1 -48 1 -81 1 -33 4 -62 8 -65 18 -15 82 -138 91 -177 15 -59 6 -246 -16
-343 -10 -41 -30 -102 -45 -135 l-28 -60 -1 71 c-1 46 6 95 19 137 47 153 45
197 -20 402 -30 95 -41 148 -45 222 l-6 98 20 -24 c12 -13 21 -33 22 -45z
m-3002 -400 l-1 -31 -13 30 c-8 17 -14 39 -14 50 0 20 0 20 14 1 8 -11 15 -34
14 -50z m169 -164 c103 -80 180 -184 219 -298 17 -49 33 -107 37 -129 l6 -40
-25 30 c-13 17 -38 64 -55 105 -46 111 -111 237 -143 276 -16 19 -54 52 -85
73 -32 21 -70 54 -87 72 l-30 33 45 -32 c25 -18 78 -58 118 -90z m1886 23 c31
-66 32 -124 4 -160 l-22 -28 -10 24 c-5 13 -13 67 -17 119 -4 52 -10 106 -14
120 l-7 25 21 -25 c12 -14 32 -47 45 -75z m-1064 24 c-6 -18 -10 -59 -10 -91
0 -40 -9 -79 -31 -133 -16 -42 -33 -98 -36 -125 -3 -28 -9 -50 -14 -50 -4 0
-11 29 -14 65 -10 90 9 179 62 287 44 92 61 110 43 47z m1090 -484 c0 -34 -29
-83 -67 -113 -27 -21 -46 -48 -61 -86 -23 -61 -20 -85 23 -179 19 -39 25 -69
25 -123 0 -93 -21 -151 -81 -219 -27 -31 -49 -60 -49 -66 0 -5 -4 -9 -10 -9
-16 0 -11 71 10 130 16 45 19 83 20 213 0 103 -4 164 -12 176 -9 15 -6 27 17
67 53 92 157 224 177 224 4 0 8 -7 8 -15z m-1266 -227 c35 -46 85 -103 112
-126 l49 -43 -49 32 c-94 62 -226 206 -226 247 0 24 49 -23 114 -110z m-365
-138 c3 -3 19 -22 34 -42 15 -21 49 -52 75 -70 26 -17 50 -36 54 -42 4 -6 8
-8 8 -3 0 4 15 0 33 -10 l32 -17 -42 -8 c-96 -20 -175 38 -207 151 -19 67 -21
95 -4 66 6 -11 14 -22 17 -25z m846 -200 c16 -32 20 -60 7 -60 -10 0 -41 85
-43 120 -5 58 4 73 12 22 5 -29 16 -66 24 -82z m-1385 -645 c0 -158 -2 -163
-53 -122 l-28 22 14 86 c17 93 40 159 56 159 7 0 11 -50 11 -145z m2080 50 c0
-30 -48 -128 -79 -165 -17 -19 -20 -20 -13 -5 5 11 15 45 22 75 20 89 70 156
70 95z"/>
<path d="M21370 14845 c-30 -9 -65 -27 -77 -40 -12 -13 -32 -26 -43 -30 -17
-5 -20 -12 -15 -43 l5 -37 -22 48 c-20 43 -24 47 -58 47 -20 0 -45 -6 -55 -14
-18 -13 -19 -17 -6 -52 7 -20 28 -53 45 -72 17 -19 30 -38 29 -43 -2 -5 20 -9
48 -9 46 0 50 2 44 20 -5 16 1 13 27 -12 18 -19 61 -47 96 -63 34 -16 62 -32
62 -37 0 -4 6 -5 14 -2 7 3 21 -2 29 -11 9 -9 20 -16 24 -17 19 -2 49 -17 68
-35 37 -34 128 -76 173 -80 42 -3 49 0 84 34 48 47 62 95 48 159 -17 74 -42
102 -112 121 -55 15 -63 21 -94 71 -28 43 -46 59 -90 79 -69 31 -151 38 -224
18z"/>
<path d="M20953 14694 c-29 -32 -29 -46 1 -81 39 -47 95 -72 135 -61 32 9 33
11 28 50 -6 43 -35 81 -79 104 -39 20 -60 17 -85 -12z"/>
<path d="M20660 10988 c-2 -55 -10 -120 -16 -130 -4 -7 -9 -22 -10 -33 -1 -12
-7 -41 -14 -65 -6 -23 -15 -117 -19 -209 -8 -177 -11 -188 -73 -278 -52 -76
-71 -132 -72 -213 -1 -41 2 -78 7 -81 5 -4 10 -18 10 -33 1 -14 5 -26 9 -26
14 0 19 -85 7 -115 -6 -16 -15 -47 -19 -68 -7 -34 -4 -41 34 -85 81 -93 67
-86 163 -84 122 3 126 5 121 57 -4 28 -19 62 -49 104 -33 46 -44 71 -43 99 0
38 3 45 75 177 l44 80 1 155 c0 130 6 182 33 325 17 94 36 186 41 205 4 19 11
69 15 110 l6 75 -44 -3 c-29 -3 -69 5 -119 22 -86 30 -88 30 -88 14z"/>
<path d="M18046 9572 c-25 -21 -60 -60 -77 -88 -17 -27 -40 -59 -51 -71 -19
-20 -19 -25 -7 -64 10 -31 25 -51 54 -70 22 -15 42 -26 46 -24 3 2 18 -3 33
-11 36 -18 110 -18 125 0 15 18 41 140 41 196 0 31 -10 64 -32 108 -40 77 -63
81 -132 24z"/>
<path d="M20456 9493 c-25 -168 -11 -203 77 -187 23 4 44 8 47 9 3 0 31 12 62
27 61 28 127 103 128 146 0 20 -5 22 -52 22 -55 0 -116 23 -196 74 -23 14 -43
26 -45 26 -1 0 -11 -53 -21 -117z"/>
<path d="M18969 9075 c-24 -54 -48 -164 -50 -229 -3 -69 47 -112 81 -71 7 8
62 43 122 77 128 73 168 109 168 148 0 27 -1 28 -32 19 -83 -24 -149 -5 -213
61 -22 22 -43 40 -48 40 -4 0 -17 -20 -28 -45z"/>
<path d="M16570 8609 c-52 -10 -108 -21 -125 -24 -16 -4 -38 -7 -47 -8 -10 -1
-18 -5 -18 -10 0 -5 -9 -7 -20 -4 -11 3 -20 0 -20 -6 0 -6 -3 -7 -7 -4 -3 4
-12 2 -20 -4 -7 -6 -13 -9 -13 -5 0 3 -26 -6 -57 -20 -32 -14 -59 -25 -61 -24
-4 2 -196 -94 -202 -101 -8 -8 -110 -69 -116 -69 -4 0 -14 -8 -23 -18 -9 -10
-28 -25 -43 -35 -29 -18 -33 -21 -154 -136 -65 -62 -179 -185 -217 -236 -4 -5
-25 -34 -46 -62 -21 -29 -42 -49 -46 -45 -5 4 -5 2 -1 -5 3 -6 -9 -36 -27 -65
-54 -85 -112 -196 -157 -298 -46 -105 -130 -351 -130 -381 0 -10 -5 -19 -11
-19 -5 0 -8 -4 -5 -9 4 -5 -3 -47 -14 -93 -11 -45 -27 -132 -35 -192 -8 -59
-19 -113 -24 -120 -6 -7 -6 -17 -1 -26 5 -8 6 -18 3 -23 -6 -9 -12 -144 -14
-302 -1 -54 -6 -93 -13 -97 -7 -5 -4 -8 7 -8 15 0 17 -11 18 -87 2 -144 22
-302 59 -457 12 -48 19 -95 16 -103 -3 -8 -2 -12 2 -9 5 3 14 -18 21 -47 18
-72 65 -204 113 -317 130 -307 340 -600 571 -798 27 -22 46 -46 42 -51 -3 -7
0 -8 9 -5 9 3 39 -13 75 -40 33 -25 64 -46 69 -46 5 0 21 -11 35 -24 15 -14
36 -27 47 -31 11 -4 17 -11 14 -17 -4 -7 -2 -8 4 -4 10 6 89 -27 102 -43 3 -3
10 -7 15 -8 31 -7 131 -49 137 -57 4 -6 10 -8 13 -4 3 3 28 -3 56 -13 27 -11
58 -19 70 -19 11 0 18 -4 15 -8 -2 -4 3 -8 12 -8 54 -3 106 -14 113 -26 7 -11
9 -11 9 1 0 9 6 11 18 5 23 -10 77 -14 205 -14 59 0 116 -4 126 -9 12 -7 22
-6 29 1 9 9 12 8 12 -2 0 -13 2 -13 10 0 6 9 23 14 49 13 22 -1 43 2 46 8 4 6
13 5 25 -1 12 -7 20 -6 22 1 2 5 19 12 38 15 19 3 60 13 90 21 50 15 86 22
117 25 7 1 10 5 7 9 -3 5 8 11 23 15 15 4 48 16 73 27 24 10 49 20 56 21 7 1
18 7 25 13 24 19 79 44 79 36 0 -5 4 -3 8 2 4 6 27 23 52 39 25 16 57 37 72
48 15 10 31 18 37 18 5 0 11 7 15 15 3 8 10 15 15 15 6 0 22 11 37 25 15 14
33 25 40 25 7 0 18 9 24 20 6 11 15 18 21 15 5 -4 8 -2 7 3 -4 13 148 153 157
144 5 -4 5 -2 2 4 -8 15 22 56 35 48 6 -4 8 -2 4 4 -3 6 4 18 16 26 12 9 19
16 15 16 -9 0 83 123 96 128 4 2 7 10 7 18 0 8 4 14 9 14 5 0 11 8 15 18 3 9
24 46 46 82 173 279 305 669 345 1025 3 28 8 64 10 80 8 52 20 257 20 335 -1
95 -13 263 -29 395 -17 140 -64 350 -112 498 -13 43 -22 82 -19 87 3 5 1 11
-5 15 -6 4 -7 11 -4 17 4 6 2 8 -4 4 -6 -3 -13 4 -17 16 -9 33 -52 129 -101
229 -24 47 -41 89 -39 93 3 3 2 4 -2 1 -3 -3 -19 16 -34 43 -21 37 -24 50 -15
61 8 12 8 13 -2 7 -17 -10 -45 13 -38 31 3 8 2 12 -3 9 -5 -3 -24 18 -42 46
-19 29 -41 60 -49 69 -8 9 -44 52 -80 95 -77 93 -155 174 -169 174 -5 0 -18
11 -29 25 -11 14 -23 25 -28 25 -4 0 -14 7 -23 16 -27 26 -155 116 -179 125
-13 5 -20 14 -17 19 4 6 3 9 -2 8 -10 -3 -154 68 -148 74 2 2 -5 5 -17 5 -12
1 -24 6 -27 10 -3 4 -13 9 -21 11 -8 1 -31 9 -50 16 -75 30 -83 33 -106 35 -8
0 -13 5 -10 10 4 5 -3 7 -14 4 -12 -3 -20 0 -20 7 0 7 -7 10 -16 6 -9 -3 -21
-3 -27 1 -7 4 -18 8 -27 9 -8 1 -73 11 -145 22 -161 26 -333 26 -465 1z m124
-71 c-6 -10 -4 -10 7 0 16 15 239 17 239 2 0 -6 11 -8 25 -4 14 3 25 2 25 -3
0 -5 14 -8 30 -5 17 2 30 0 30 -6 0 -6 11 -9 25 -7 14 1 28 -2 31 -6 3 -5 16
-9 30 -9 13 0 24 -4 24 -8 0 -5 6 -9 13 -9 20 0 127 -54 127 -64 0 -5 7 -9 15
-9 8 0 15 -5 15 -11 0 -5 4 -8 9 -5 14 9 145 -127 197 -205 69 -102 117 -197
110 -215 -3 -8 -2 -13 3 -9 5 3 16 -14 24 -37 9 -24 23 -64 32 -90 10 -25 14
-52 10 -59 -5 -7 -4 -10 2 -6 13 8 48 -125 40 -153 -3 -11 -1 -18 4 -14 5 3 9
4 9 2 0 -2 11 -61 25 -131 14 -71 23 -133 20 -138 -4 -5 -3 -15 2 -21 4 -7 8
-22 9 -33 2 -27 14 -115 19 -141 18 -84 33 -577 31 -964 -4 -446 -14 -653 -42
-850 -4 -25 -8 -56 -10 -70 -1 -14 -3 -25 -4 -25 -1 0 -3 -13 -5 -30 -10 -89
-17 -127 -36 -219 -12 -56 -25 -105 -28 -111 -4 -5 -8 -20 -9 -33 -1 -26 -45
-164 -74 -232 -41 -98 -114 -232 -133 -246 -11 -8 -19 -18 -17 -22 5 -15 -135
-164 -176 -186 -9 -5 -19 -12 -22 -16 -5 -7 -69 -43 -82 -46 -5 -1 -15 -2 -24
-3 -8 0 -12 -5 -9 -11 6 -10 -7 -14 -32 -11 -7 1 -13 -3 -13 -9 0 -6 -4 -9 -9
-5 -5 3 -12 1 -15 -4 -5 -8 -37 -16 -101 -27 -100 -17 -156 -20 -255 -17 -147
4 -135 3 -205 20 -33 8 -72 17 -87 20 -16 3 -28 9 -28 14 0 5 -9 9 -21 9 -13
0 -18 4 -13 12 5 8 2 9 -9 5 -14 -5 -79 23 -97 43 -3 3 -18 12 -33 20 -36 18
-187 176 -207 216 -8 16 -17 31 -21 34 -14 13 -47 89 -41 96 4 4 2 4 -4 1 -14
-8 -48 69 -38 85 4 6 2 8 -3 5 -6 -4 -13 1 -16 11 -3 9 -17 49 -31 87 -14 39
-24 76 -21 83 3 7 1 11 -4 8 -7 -5 -20 32 -26 79 -1 6 -5 17 -8 25 -11 25 -54
257 -53 282 1 13 -2 26 -7 29 -5 3 -9 38 -10 77 -1 38 -6 68 -10 65 -4 -2 -7
10 -6 29 1 35 -10 148 -16 157 -10 18 -20 381 -20 746 0 382 7 625 20 760 3
28 8 70 10 95 3 25 7 70 10 100 3 30 9 66 12 80 3 14 5 29 4 33 -2 12 48 278
56 297 4 8 8 20 8 25 7 44 19 85 25 85 5 0 6 10 2 22 -4 16 -2 19 8 13 9 -5
11 -4 6 3 -10 17 34 143 47 135 6 -3 7 -1 3 6 -9 14 54 162 66 155 4 -3 5 1 3
9 -3 7 5 25 17 39 13 14 24 32 26 39 4 15 45 73 71 100 9 9 23 25 32 35 48 58
166 147 181 138 4 -3 8 -1 8 5 0 15 88 53 102 45 7 -4 8 -3 4 4 -5 8 1 12 18
12 14 0 28 5 31 10 4 6 11 8 16 5 5 -4 15 -3 22 2 9 6 85 24 140 32 5 0 5 -5
1 -11z"/>
<path d="M25650 8609 c-58 -10 -114 -20 -125 -21 -11 -2 -25 -7 -32 -11 -6 -4
-19 -4 -27 -1 -10 4 -25 -1 -36 -11 -10 -9 -24 -14 -29 -10 -6 3 -11 1 -11 -5
0 -6 -4 -9 -8 -6 -5 3 -21 -2 -37 -10 -16 -8 -36 -16 -44 -17 -9 -2 -39 -15
-67 -30 -28 -14 -54 -23 -58 -20 -3 4 -6 1 -6 -5 0 -7 -3 -11 -7 -10 -11 2
-67 -25 -75 -37 -4 -5 -8 -6 -8 -2 0 4 -9 -1 -20 -11 -11 -10 -40 -29 -65 -41
-25 -12 -45 -27 -45 -33 0 -6 -3 -9 -6 -5 -4 3 -12 1 -20 -6 -7 -7 -19 -16
-26 -22 -7 -5 -38 -30 -68 -55 -30 -25 -51 -39 -46 -33 4 7 -39 -35 -96 -93
-57 -58 -107 -112 -111 -120 -5 -8 -13 -11 -19 -8 -7 4 -8 2 -4 -5 4 -6 0 -14
-8 -17 -9 -3 -16 -11 -16 -16 0 -11 -60 -91 -72 -96 -5 -2 -8 -10 -8 -18 0 -8
-4 -14 -9 -14 -5 0 -16 -16 -26 -36 -9 -19 -23 -38 -31 -41 -8 -3 -11 -9 -8
-14 3 -5 -4 -21 -14 -37 -11 -15 -39 -64 -62 -109 -23 -46 -46 -83 -52 -83 -5
0 -6 -4 -3 -10 3 -5 -4 -29 -17 -52 -12 -24 -23 -47 -24 -53 -1 -5 -16 -46
-32 -90 -46 -121 -82 -245 -106 -366 -12 -60 -26 -106 -31 -102 -4 5 -5 2 -1
-5 4 -7 2 -20 -6 -29 -9 -12 -9 -15 -1 -9 10 5 11 -1 7 -26 -11 -69 -15 -79
-25 -72 -7 4 -7 -1 1 -15 6 -13 8 -35 4 -53 -10 -49 -12 -107 -12 -338 0 -230
2 -282 13 -349 4 -26 3 -47 -4 -55 -9 -10 -8 -15 5 -20 12 -4 15 -15 12 -36
-3 -17 0 -30 5 -30 5 0 7 -6 4 -12 -2 -7 0 -26 4 -42 6 -20 4 -35 -4 -45 -9
-11 -9 -13 0 -8 8 5 14 0 17 -15 3 -13 10 -46 16 -75 7 -29 8 -57 4 -64 -5 -8
-3 -9 6 -4 10 6 12 3 8 -13 -3 -12 -1 -23 6 -26 7 -3 6 -8 -4 -15 -13 -9 -13
-11 1 -11 18 0 30 -30 24 -61 -2 -11 0 -17 4 -15 11 7 44 -102 35 -117 -4 -6
-3 -8 1 -4 11 10 48 -81 39 -95 -4 -7 -2 -8 4 -4 7 4 12 2 12 -4 0 -6 31 -74
69 -151 67 -135 145 -260 240 -384 25 -33 45 -63 44 -67 -1 -3 5 -12 15 -20
15 -11 16 -11 5 3 -7 9 47 -43 119 -115 73 -72 136 -130 139 -129 4 1 21 -10
37 -25 16 -15 41 -33 55 -41 15 -8 35 -22 46 -32 10 -10 22 -15 25 -12 3 4 6
-1 6 -9 0 -9 6 -15 13 -15 6 1 76 -31 155 -70 79 -39 145 -72 147 -72 3 -1 12
-1 21 -1 8 0 12 -4 9 -10 -3 -5 0 -7 8 -4 7 2 27 -1 43 -7 34 -14 29 -13 77
-22 23 -5 35 -12 31 -19 -5 -7 1 -9 19 -4 16 4 27 1 31 -7 5 -9 7 -9 12 0 4 9
13 9 31 2 14 -5 28 -7 31 -4 3 2 10 1 16 -4 17 -13 57 -21 50 -9 -4 7 2 7 17
2 13 -4 36 -8 50 -9 14 -1 31 -5 39 -10 9 -5 11 -4 6 3 -9 15 145 17 160 3 5
-6 23 -4 46 3 21 8 49 11 63 9 14 -3 31 0 39 6 10 9 16 9 21 1 4 -7 11 -8 18
-1 7 5 50 19 97 30 47 12 95 26 108 31 15 7 21 7 17 0 -3 -6 1 -7 9 -4 9 3 16
10 16 14 0 4 7 11 16 14 12 5 15 2 10 -11 -6 -15 -5 -16 11 -1 30 26 233 119
245 112 7 -4 8 -3 4 4 -4 7 4 17 21 24 15 7 30 15 33 18 3 4 28 21 55 40 28
18 75 53 106 76 31 24 60 40 64 36 3 -4 5 -2 4 3 -1 6 47 60 107 120 116 117
152 156 198 220 50 70 152 229 159 248 4 10 11 15 17 12 6 -4 7 1 3 11 -4 12
-3 15 6 10 8 -5 11 -3 9 7 -3 15 62 160 75 165 4 2 5 8 1 13 -3 5 0 9 5 9 6 0
10 3 9 8 -3 9 32 113 42 127 4 6 11 25 15 43 3 17 10 32 15 32 4 0 7 6 7 13
-2 21 26 127 34 127 4 0 6 7 5 15 -1 9 8 62 21 118 13 56 26 122 29 147 3 25
7 51 9 58 3 8 8 50 11 95 3 45 7 88 9 95 3 7 7 85 10 175 5 127 1 207 -16 372
-12 116 -22 227 -22 247 -1 20 -4 35 -7 33 -10 -6 -32 124 -24 137 4 6 3 8 -3
5 -8 -5 -30 66 -38 123 -1 8 -7 28 -14 44 -6 16 -9 36 -6 45 3 8 3 12 -1 8
-10 -10 -85 193 -77 207 3 6 2 8 -2 3 -5 -4 -15 7 -22 25 -11 25 -11 33 -1 41
10 6 9 8 -2 4 -11 -2 -33 29 -74 107 -64 122 -186 306 -244 368 -20 22 -42 50
-49 63 -7 12 -20 25 -28 29 -9 3 -13 11 -9 17 4 7 3 9 -3 6 -11 -7 -76 56 -68
66 3 4 3 5 0 3 -3 -2 -19 8 -34 23 -16 14 -42 36 -57 48 -16 12 -38 30 -49 38
-11 9 -51 38 -90 65 -38 28 -75 54 -82 60 -7 5 -15 10 -18 10 -3 0 -41 20 -85
45 -44 25 -86 45 -95 45 -8 0 -15 5 -15 12 0 6 -3 8 -7 5 -3 -4 -11 -3 -17 2
-6 4 -39 16 -73 26 -35 11 -63 23 -63 28 0 5 -7 7 -15 3 -8 -3 -15 -1 -15 4 0
5 -7 6 -17 3 -11 -4 -14 -3 -9 5 4 7 -3 11 -21 10 -15 0 -71 9 -123 22 -133
31 -381 35 -530 9z m414 -72 c44 -4 76 -13 89 -24 11 -10 17 -12 13 -5 -4 6
-2 12 3 12 6 0 11 -5 11 -11 0 -6 6 -9 14 -6 16 6 196 -79 196 -93 0 -6 5 -10
12 -10 21 0 79 -51 72 -63 -4 -7 -4 -9 0 -5 11 10 108 -91 100 -104 -4 -6 -3
-8 3 -5 5 3 28 -22 50 -56 42 -63 130 -241 136 -274 2 -10 7 -25 10 -33 24
-56 80 -269 92 -350 4 -25 15 -92 26 -149 22 -119 23 -132 9 -111 -14 22 -12
4 4 -34 8 -19 15 -49 15 -67 1 -19 2 -64 4 -101 1 -38 4 -68 7 -68 4 0 7 -17
7 -37 1 -21 5 -92 9 -158 5 -66 9 -324 8 -573 0 -360 -3 -455 -13 -462 -10 -6
-10 -9 -1 -15 7 -5 9 -20 5 -45 -7 -39 -14 -118 -19 -203 -1 -29 -8 -52 -17
-58 -10 -6 -10 -9 -2 -9 17 0 10 -77 -23 -265 -32 -179 -31 -177 -33 -198 0
-10 -5 -16 -10 -13 -5 4 -7 -7 -5 -24 3 -17 1 -30 -5 -30 -6 0 -7 -7 -4 -17 4
-11 3 -14 -5 -9 -8 5 -10 2 -6 -8 8 -20 -55 -210 -104 -316 -21 -47 -60 -119
-87 -160 -48 -77 -196 -230 -221 -230 -8 0 -14 -4 -14 -8 0 -12 -93 -62 -114
-62 -9 0 -16 -5 -16 -12 0 -6 -3 -8 -6 -5 -4 3 -16 1 -28 -5 -11 -7 -28 -13
-36 -14 -8 -1 -31 -7 -50 -13 -137 -44 -519 -27 -581 26 -9 7 -18 10 -22 7
-10 -10 -48 7 -41 18 4 7 2 8 -4 4 -20 -12 -153 72 -192 121 -12 16 -19 21
-15 13 4 -8 -5 -1 -20 15 -14 17 -39 44 -54 60 -39 41 -112 156 -106 165 3 5
1 10 -4 12 -5 1 -11 10 -13 18 -2 8 -9 20 -16 26 -8 5 -15 22 -15 36 -1 14 -5
24 -8 22 -10 -6 -58 136 -52 153 4 10 2 14 -4 10 -19 -12 -88 273 -117 483
-20 142 -38 342 -39 430 -1 58 -6 108 -10 111 -10 7 -12 759 -3 944 4 72 8
168 10 215 6 133 32 372 51 460 3 14 8 43 10 65 7 69 68 314 77 309 4 -3 5 1
2 9 -13 35 127 358 178 409 10 10 15 18 12 18 -10 0 57 83 110 135 52 52 146
122 146 109 0 -4 8 0 18 9 9 8 24 17 32 19 8 2 21 9 29 16 8 8 22 11 33 9 10
-3 16 -1 13 3 -5 7 50 25 57 19 2 -1 13 3 26 10 17 9 22 9 22 -1 0 -10 3 -10
9 1 5 8 16 11 25 8 9 -4 16 -2 16 3 0 5 15 11 33 13 44 5 247 2 331 -6z"/>
<path d="M25798 8533 c6 -2 18 -2 25 0 6 3 1 5 -13 5 -14 0 -19 -2 -12 -5z"/>
<path d="M24832 6770 c0 -14 2 -19 5 -12 2 6 2 18 0 25 -3 6 -5 1 -5 -13z"/>
<path d="M11505 8520 l-960 -5 -3 -29 c-2 -16 2 -32 10 -37 7 -5 96 -9 198 -9
l185 0 0 -2169 0 -2169 -185 2 c-102 1 -191 -2 -197 -7 -22 -16 -16 -63 10
-74 26 -11 1646 -12 1664 0 6 4 14 1 16 -5 3 -7 6 8 6 35 1 31 -3 47 -11 48
-7 0 -141 1 -298 2 -157 1 -284 5 -282 10 1 4 2 482 2 1062 l0 1055 463 0
c255 -1 470 2 478 5 8 3 40 4 72 2 32 -2 60 0 63 5 3 4 19 8 35 8 17 0 28 -4
25 -8 -2 -4 4 -8 14 -8 10 0 18 5 17 10 -1 6 8 12 21 14 13 2 22 -2 22 -10 0
-10 2 -10 8 0 5 7 24 14 43 16 48 6 89 14 124 24 17 5 42 8 57 8 14 -1 24 2
21 7 -3 5 1 7 8 6 8 -1 26 3 41 9 15 6 38 13 50 15 13 1 32 8 44 14 16 9 24 9
34 0 10 -9 11 -9 6 0 -3 6 -2 14 4 18 5 3 10 0 10 -7 0 -10 2 -10 8 -1 9 14
102 55 102 45 0 -4 4 -2 8 4 4 6 41 28 82 50 41 21 77 42 80 45 15 19 99 77
104 72 3 -4 6 1 6 9 0 9 6 18 14 21 11 5 81 81 155 172 23 29 87 169 111 245
11 36 27 117 35 180 18 133 13 239 -17 380 -11 52 -21 105 -22 117 0 11 -4 20
-7 18 -6 -4 -45 97 -40 104 1 2 -1 7 -6 10 -5 3 -26 34 -47 68 -20 35 -57 87
-81 117 -24 29 -41 57 -37 61 4 5 2 5 -4 2 -7 -4 -30 13 -53 38 -23 25 -45 45
-49 45 -4 0 -21 14 -39 30 -18 17 -37 30 -42 30 -6 0 -11 4 -11 9 0 5 -8 11
-17 15 -10 3 -31 15 -48 26 -16 11 -40 24 -51 29 -12 5 -24 15 -26 21 -2 6
-13 12 -26 13 -12 0 -22 5 -22 9 0 4 -9 8 -20 8 -11 0 -20 5 -20 11 0 5 -5 7
-11 3 -6 -3 -14 -2 -18 3 -6 10 -244 86 -268 86 -7 0 -13 4 -13 8 0 4 -8 6
-17 4 -10 -1 -22 0 -28 4 -10 6 -40 10 -78 12 -9 0 -15 4 -12 9 3 5 -4 7 -16
5 -12 -3 -54 0 -93 5 -155 22 -359 25 -1281 20z m967 -91 c10 -6 19 -5 23 1 4
6 11 8 16 4 5 -3 28 -7 52 -10 23 -2 43 -8 45 -14 2 -6 8 -8 13 -5 14 9 117
-26 139 -47 13 -13 20 -15 20 -6 0 10 2 10 9 0 4 -8 11 -13 15 -13 19 2 36
-13 31 -28 -5 -12 -4 -13 6 -4 9 9 19 7 43 -9 17 -12 33 -25 36 -28 3 -3 20
-16 38 -29 18 -12 30 -26 27 -31 -3 -4 3 -14 12 -21 14 -12 16 -12 9 1 -19 38
70 -73 110 -138 75 -118 136 -294 148 -424 3 -26 8 -52 11 -58 3 -5 6 -88 5
-183 -2 -233 -1 -227 -14 -220 -8 5 -8 3 -1 -8 13 -17 -2 -162 -16 -153 -5 3
-6 -2 -3 -11 7 -18 -23 -142 -39 -163 -6 -7 -12 -24 -13 -37 -6 -54 -145 -262
-166 -249 -6 4 -8 2 -4 -4 3 -6 -8 -21 -26 -33 -18 -13 -35 -26 -38 -30 -10
-14 -117 -68 -124 -62 -3 3 -6 1 -6 -5 0 -7 -9 -12 -20 -12 -11 0 -20 -5 -20
-10 0 -6 -3 -9 -7 -8 -5 0 -15 -1 -23 -4 -50 -19 -154 -41 -192 -42 -16 -1
-28 -4 -28 -8 0 -5 -18 -6 -40 -4 -22 2 -40 1 -40 -3 0 -3 -181 -6 -402 -6
l-403 0 0 1063 0 1063 400 -1 c221 -1 407 -6 417 -11z"/>
<path d="M19725 8509 c-3 -9 -2 -24 1 -34 6 -14 4 -16 -7 -10 -12 7 -12 6 -1
-7 10 -13 40 -15 192 -14 99 0 180 -2 180 -6 0 -4 6 -5 13 -3 9 4 12 -433 12
-2164 l0 -2168 -188 0 c-114 0 -192 -4 -198 -10 -16 -16 0 -63 22 -63 10 0 19
-4 19 -8 0 -10 3089 -8 3113 2 16 8 17 58 15 910 l-3 901 -72 3 -72 3 -9 -38
c-49 -196 -103 -399 -109 -413 -4 -8 -7 -19 -8 -25 -5 -42 -17 -85 -25 -85 -5
0 -7 -6 -5 -12 7 -19 -69 -280 -80 -271 -4 4 -5 2 0 -6 10 -18 -114 -393 -128
-384 -6 3 -7 1 -4 -4 10 -16 -13 -74 -26 -66 -5 3 -7 1 -4 -5 7 -11 -47 -135
-55 -127 -3 3 -5 -1 -5 -9 0 -21 -92 -154 -120 -174 -14 -9 -32 -25 -41 -34
-9 -10 -22 -18 -28 -18 -6 0 -17 -7 -24 -15 -7 -9 -15 -13 -18 -10 -3 3 -11 0
-19 -6 -7 -6 -13 -8 -13 -4 0 4 -6 3 -13 -3 -25 -21 -109 -24 -642 -27 l-540
-2 0 2171 0 2171 310 -2 c170 -1 315 -5 321 -7 15 -6 24 15 24 55 l0 29 -880
2 c-802 3 -881 2 -885 -13z"/>
<path d="M8536 2248 c7 -11 -142 -409 -150 -401 -4 4 -4 0 -1 -9 4 -9 1 -27
-6 -40 -7 -13 -14 -30 -15 -38 -2 -8 -9 -30 -17 -50 -8 -19 -43 -114 -77 -210
-35 -96 -85 -236 -112 -310 -27 -74 -59 -163 -71 -197 -13 -38 -27 -63 -35
-63 -12 0 -12 -3 -2 -15 9 -11 9 -15 1 -15 -7 0 -9 -5 -6 -10 3 -6 1 -10 -5
-10 -6 0 -9 -4 -6 -8 4 -7 -54 -177 -150 -437 l-15 -40 -82 0 -82 0 -3 -37 -3
-38 266 0 266 0 -3 38 -3 37 -136 0 -136 0 18 43 c11 24 19 50 19 58 0 9 4 12
10 9 5 -3 8 0 5 7 -7 18 29 110 40 101 4 -5 5 -3 2 3 -6 11 69 243 82 254 3 3
7 12 9 20 9 49 47 138 56 133 6 -3 8 -3 4 2 -4 4 -2 15 5 23 8 11 8 13 0 9 -7
-5 -10 -1 -7 10 5 17 27 18 317 16 l312 -2 36 -108 c20 -59 37 -111 38 -115 1
-4 4 -13 6 -20 2 -7 21 -59 40 -115 20 -57 33 -108 29 -114 -4 -7 -3 -10 2 -7
5 3 25 -42 45 -101 l36 -106 -109 2 -109 1 2 -43 c2 -24 6 -42 10 -40 3 3 148
5 322 5 296 1 316 2 322 19 7 22 -3 50 -19 52 -6 1 -31 2 -56 3 l-45 1 -51
150 c-29 83 -50 158 -48 168 1 10 -1 15 -6 12 -10 -6 -41 95 -33 108 3 6 1 7
-4 4 -10 -6 -25 36 -28 74 0 9 -7 25 -15 35 -13 16 -13 17 0 9 12 -7 13 -6 3
7 -7 8 -11 18 -8 21 3 4 2 5 -2 2 -6 -5 -40 82 -46 115 -1 8 -5 17 -9 20 -4 3
-9 17 -10 30 -2 14 -6 27 -9 30 -4 3 -14 28 -22 55 -9 28 -44 129 -78 225 -33
96 -61 182 -62 190 0 8 -3 17 -7 20 -13 9 -80 223 -73 234 3 6 2 8 -2 3 -11
-9 -37 63 -29 83 3 8 2 11 -3 7 -9 -10 -55 122 -47 134 3 5 1 9 -5 9 -5 0 -17
24 -25 54 l-16 55 -104 3 c-57 2 -102 0 -100 -4z m19 -390 c15 -51 28 -99 28
-105 0 -7 3 -13 7 -13 3 0 14 -23 24 -50 15 -42 16 -53 5 -68 -11 -14 -11 -15
1 -4 12 10 21 -8 58 -110 23 -68 44 -135 45 -150 1 -14 5 -24 8 -22 4 2 12
-18 20 -44 7 -26 21 -65 30 -87 10 -21 15 -43 13 -47 -3 -4 -131 -8 -286 -8
-220 0 -279 3 -275 13 2 6 15 45 28 85 12 39 27 72 32 72 4 0 5 5 2 10 -3 6
-1 10 5 10 6 0 9 4 6 8 -8 14 16 82 27 75 6 -3 7 -1 4 4 -8 13 12 75 27 85 6
4 8 8 4 8 -11 0 33 120 44 120 5 0 7 4 4 9 -7 11 28 114 36 106 3 -4 5 0 5 7
-2 17 56 188 64 188 3 0 19 -42 34 -92z"/>
<path d="M22300 2223 c-6 -15 -14 -37 -19 -48 -5 -11 -21 -56 -36 -100 -15
-44 -44 -125 -65 -180 -20 -55 -57 -154 -80 -220 -24 -66 -47 -124 -52 -129
-4 -6 -8 -17 -8 -25 0 -28 -66 -192 -74 -184 -4 4 -5 1 -1 -7 3 -8 -25 -96
-61 -195 -37 -99 -75 -205 -86 -235 -32 -91 -66 -183 -79 -215 -7 -16 -13 -32
-13 -35 -1 -3 -22 -62 -46 -132 l-45 -127 -76 5 c-83 6 -103 -4 -97 -48 3 -23
4 -23 173 -25 94 -2 213 -4 266 -5 l95 -3 3 34 c1 19 4 37 6 40 2 4 -61 7
-141 6 -132 0 -160 4 -135 19 5 3 12 22 15 41 4 20 11 33 16 30 4 -3 6 5 2 17
-3 11 -1 19 4 16 5 -4 10 4 10 15 2 31 56 181 69 189 5 4 7 8 3 8 -4 0 4 30
19 68 14 37 32 89 40 115 7 26 17 45 21 43 5 -3 8 5 8 17 0 12 8 42 18 67 l17
45 309 0 c327 0 314 2 313 -42 -1 -7 3 -13 7 -13 12 0 43 -98 36 -116 -3 -8
-2 -13 3 -10 5 3 27 -49 50 -117 22 -67 47 -142 56 -166 8 -24 12 -48 8 -54
-3 -5 -2 -7 4 -4 7 4 63 -140 63 -164 0 -2 -47 -2 -104 -1 l-103 4 -7 -32 c-3
-18 -4 -36 -1 -40 3 -5 152 -9 330 -9 l325 -1 6 25 c9 38 -8 51 -70 50 l-55 0
-26 77 c-15 43 -23 83 -19 89 4 7 3 9 -3 6 -8 -5 -67 149 -68 178 0 6 -3 12
-6 15 -4 3 -20 48 -37 100 -17 52 -38 112 -47 134 -9 21 -13 46 -10 54 3 9 3
13 -1 9 -8 -8 -76 173 -77 206 -1 9 -5 17 -10 17 -5 0 -7 9 -4 20 3 11 2 18
-2 16 -4 -3 -16 23 -26 57 -10 34 -29 88 -42 121 -13 32 -21 66 -18 74 3 9 3
13 -1 9 -9 -9 -66 154 -59 171 3 7 1 11 -4 8 -11 -7 -84 211 -75 225 4 7 3 9
-3 6 -10 -7 -97 238 -89 252 3 5 -42 9 -99 10 l-105 2 -10 -28z m65 -488 c37
-110 68 -207 69 -215 0 -8 4 -17 7 -20 7 -6 119 -327 119 -341 0 -5 -119 -9
-280 -9 -201 0 -280 3 -280 11 0 23 64 188 71 183 4 -2 6 4 5 13 -4 27 15 74
27 66 6 -3 7 -1 3 6 -9 14 12 81 25 81 6 0 8 4 5 8 -6 11 15 83 23 78 3 -2 7
6 7 17 1 12 23 82 49 155 34 93 51 129 58 120 6 -9 7 -7 3 6 -8 23 3 61 13 50
5 -5 39 -99 76 -209z"/>
<path d="M5424 2234 c-6 -2 -9 -16 -6 -31 4 -20 2 -24 -9 -18 -8 5 -7 0 3 -10
14 -15 31 -18 92 -16 l76 2 2 -883 3 -883 -82 1 c-81 2 -83 1 -83 -22 0 -13
-5 -24 -11 -24 -8 0 -8 -4 1 -15 10 -12 67 -14 367 -14 l354 -1 -3 38 -3 37
-107 0 -108 0 0 448 c0 291 3 447 10 447 9 0 14 -15 11 -33 -1 -5 3 -6 8 -2
11 6 37 -34 32 -50 -1 -5 1 -7 5 -3 4 4 21 -11 38 -35 17 -23 33 -44 36 -47
18 -15 170 -220 170 -229 0 -6 5 -11 11 -11 5 0 7 -5 3 -12 -4 -7 -3 -8 4 -4
11 7 38 -32 34 -47 -1 -5 1 -6 6 -3 5 3 15 -6 22 -19 7 -14 17 -25 22 -25 4 0
8 -7 8 -15 0 -8 4 -15 8 -15 9 0 167 -208 167 -220 0 -5 4 -12 9 -17 5 -5 6
-2 1 7 -13 25 8 0 60 -70 27 -36 59 -77 73 -92 l25 -27 221 0 c121 -1 226 2
231 7 13 9 14 55 2 63 -6 4 -41 6 -78 5 l-69 -2 -29 41 c-16 22 -30 45 -32 50
-1 6 -13 18 -25 28 -14 10 -21 24 -17 33 3 8 1 14 -4 12 -12 -3 -103 103 -103
120 0 6 -6 15 -13 19 -14 9 -111 133 -103 133 2 0 -9 13 -25 30 -18 17 -27 35
-23 41 4 7 3 9 -3 6 -6 -4 -19 6 -29 21 -10 15 -24 33 -31 40 -7 7 -13 20 -13
28 0 8 -4 13 -8 10 -4 -2 -19 12 -32 32 -14 20 -27 39 -30 42 -23 21 -82 102
-70 96 9 -4 8 -2 -2 7 -10 8 -14 18 -10 22 4 5 2 5 -4 2 -14 -8 -78 79 -64 88
5 3 10 -2 10 -11 0 -17 1 -16 13 1 11 14 22 17 45 12 18 -4 32 -3 32 1 0 5 35
14 78 21 42 7 82 16 87 20 6 4 46 22 90 41 62 26 93 47 140 94 33 34 64 60 68
58 5 -1 6 1 3 6 -3 5 3 26 14 47 11 22 23 54 26 72 3 18 9 31 13 28 12 -7 6
147 -8 195 -7 25 -22 62 -33 83 -23 47 -88 132 -99 132 -5 0 -19 9 -31 20 -13
11 -25 20 -28 21 -3 0 -27 11 -55 23 -62 28 -175 62 -186 56 -4 -3 -10 -1 -14
4 -3 6 -18 11 -33 11 -126 4 -1009 8 -1018 4z m836 -77 c0 -4 4 -6 9 -2 29 17
187 -49 185 -77 -1 -10 4 -14 12 -11 13 5 66 -48 54 -54 -3 -1 4 -8 14 -16 12
-9 16 -19 11 -27 -6 -9 -4 -11 5 -5 10 6 12 4 7 -9 -4 -9 -3 -15 2 -11 9 5 16
-18 29 -85 8 -42 10 -150 3 -150 -3 0 -7 -19 -7 -43 -3 -64 -93 -217 -128
-217 -8 0 -16 -7 -20 -15 -3 -8 -12 -15 -20 -15 -8 0 -16 -3 -18 -8 -6 -14
-134 -52 -208 -62 -41 -5 -121 -10 -177 -10 l-103 0 0 409 c0 276 3 410 10
413 24 7 340 3 340 -5z"/>
<path d="M10267 2234 c-4 -4 -7 -20 -7 -35 0 -35 20 -42 106 -37 l59 3 3 -886
2 -886 -82 1 -83 1 0 -35 0 -35 700 0 700 0 3 388 2 387 -30 0 c-34 0 -39 -8
-68 -122 -10 -37 -21 -66 -24 -62 -4 3 -4 -4 -1 -17 4 -14 2 -20 -4 -16 -6 4
-10 -3 -10 -16 1 -37 -15 -97 -25 -97 -5 0 -7 -4 -4 -9 8 -12 -42 -150 -62
-173 -8 -10 -12 -18 -8 -18 10 0 -30 -74 -60 -109 -51 -61 -61 -63 -353 -65
l-266 -1 0 880 c0 672 3 881 12 885 7 3 66 3 133 0 67 -3 126 -3 133 0 7 3 13
22 13 42 l1 37 -387 1 c-212 0 -389 -3 -393 -6z"/>
<path d="M12590 2215 c-6 -15 -10 -30 -10 -35 0 -11 68 -22 117 -20 21 1 43 2
50 1 8 -1 12 -217 13 -871 0 -479 3 -876 5 -883 4 -9 -17 -12 -82 -12 -87 0
-88 0 -97 -28 -8 -22 -7 -30 4 -37 8 -5 179 -9 383 -9 202 0 372 -3 376 -5 9
-6 11 19 5 56 l-6 28 -129 -3 -129 -2 -3 425 -2 425 215 -1 c118 0 220 3 225
7 6 4 26 8 45 8 45 -1 92 7 158 24 35 9 55 11 59 4 4 -6 10 -4 17 5 9 12 36
26 66 33 12 3 66 31 77 40 7 5 33 26 57 45 24 19 57 55 74 80 29 42 38 64 72
176 14 47 10 104 -13 184 -8 30 -13 59 -10 65 4 5 3 7 -2 3 -4 -4 -21 18 -36
50 -16 31 -29 53 -29 48 0 -5 -24 14 -54 43 -30 28 -60 51 -66 51 -6 0 -8 5
-5 10 4 6 3 10 -2 9 -4 -1 -28 7 -53 18 -54 24 -81 35 -96 38 -6 2 -37 10 -68
19 -92 27 -130 29 -634 33 l-482 3 -10 -25z m927 -60 c24 -3 43 -10 43 -15 0
-5 7 -6 17 -3 12 5 14 3 8 -7 -5 -9 -4 -11 3 -6 15 9 104 -43 96 -55 -3 -5 0
-8 7 -7 17 4 91 -103 85 -124 -2 -10 -1 -16 4 -13 27 17 42 -235 21 -342 -14
-72 -53 -145 -95 -180 -38 -30 -152 -77 -167 -67 -5 3 -15 2 -21 -3 -7 -4
-106 -8 -220 -8 l-208 -1 0 421 0 420 192 -2 c106 -1 211 -4 235 -8z"/>
<path d="M14932 2203 l3 -38 85 0 85 0 0 -885 0 -886 -82 4 c-82 4 -82 4 -89
-22 -14 -58 -25 -56 346 -56 l341 0 -3 38 c-2 24 -8 37 -18 38 -8 1 -50 2 -92
2 l-78 2 0 440 0 440 385 0 385 0 0 -444 0 -444 -94 5 c-89 6 -94 5 -101 -16
-3 -11 -3 -30 0 -41 6 -20 14 -20 341 -20 184 1 338 -1 342 -4 10 -6 9 55 -1
71 -4 7 -36 10 -87 9 l-80 -1 0 882 c0 486 3 883 8 883 4 1 43 2 87 3 l80 2
-1 28 c-1 15 -2 31 -3 37 -1 5 -136 9 -347 10 l-345 0 3 -37 3 -38 98 0 97 0
0 -407 0 -408 -387 0 -388 0 3 405 2 405 83 1 c45 1 89 1 97 0 11 -1 15 9 15
38 l1 40 -349 1 -348 0 3 -37z"/>
<path d="M19352 2203 l3 -38 83 0 82 0 0 -885 0 -885 -82 0 -83 0 -3 -38 c-2
-25 1 -37 10 -37 275 -3 1393 2 1397 6 8 8 14 722 6 751 -4 18 -12 23 -35 23
-35 0 -41 -11 -66 -121 -9 -38 -20 -67 -25 -64 -5 4 -6 -1 -3 -9 8 -20 -78
-281 -121 -365 -30 -61 -90 -129 -115 -132 -6 -1 -14 -3 -20 -4 -5 -1 -13 -3
-17 -4 -5 -1 -123 -3 -263 -4 l-255 -2 0 888 c0 681 3 886 12 883 19 -8 230
-9 242 -2 6 4 16 4 22 1 7 -5 9 6 7 31 l-3 39 -388 3 -388 2 3 -37z"/>
<path d="M23992 2203 l3 -38 83 0 82 0 2 -687 c2 -818 1 -777 11 -771 5 3 8
-3 6 -13 -2 -21 1 -32 37 -113 23 -51 101 -160 116 -161 6 0 68 -39 93 -57 12
-10 139 -49 180 -57 17 -3 50 -8 75 -11 67 -8 74 -10 89 -19 8 -5 12 -5 9 0
-4 5 26 9 67 10 50 0 72 -3 67 -10 -3 -7 0 -6 9 1 19 15 51 19 68 9 10 -7 12
-6 6 4 -6 10 -4 12 7 7 9 -3 20 -1 26 5 5 5 28 11 50 11 22 1 38 5 36 9 -3 4
18 19 46 33 27 14 50 22 50 19 0 -4 9 5 21 20 11 14 25 24 30 21 5 -4 9 -3 9
2 0 4 16 26 36 48 19 22 47 66 63 98 15 31 30 55 33 52 3 -3 3 6 1 20 -3 14
-1 25 5 25 14 0 13 -34 18 773 l5 727 62 0 c94 0 107 6 107 46 l0 34 -262 -2
-263 -3 -3 -32 c-4 -41 8 -44 153 -41 l110 3 -2 -735 c-2 -725 -2 -736 -23
-793 -12 -31 -26 -57 -31 -57 -6 0 -8 -4 -5 -9 9 -14 -64 -102 -77 -95 -7 4
-9 4 -5 -1 12 -13 -50 -56 -129 -88 -70 -27 -89 -31 -188 -31 -103 -1 -114 1
-170 29 -33 17 -61 33 -63 38 -2 4 -10 7 -17 7 -8 0 -23 12 -34 28 -12 15 -26
33 -32 40 -26 31 -59 124 -53 150 4 21 3 24 -5 12 -13 -18 -11 -110 -14 780
l-2 725 90 -1 c49 -1 95 1 102 3 7 3 13 20 13 39 l0 34 -351 0 -350 0 3 -37z"/>
<path d="M26426 2228 c-3 -7 -6 -26 -9 -41 l-5 -29 87 4 86 3 -3 -510 c-1
-280 -3 -668 -5 -862 -1 -193 1 -349 5 -347 4 2 6 -8 6 -23 l-1 -28 -81 0 -81
0 -3 -38 -3 -37 339 0 c186 1 348 3 358 6 16 4 19 12 16 34 -5 35 -20 39 -133
37 l-89 -2 0 448 c0 246 3 447 8 447 4 -1 25 -26 47 -56 22 -30 55 -72 72 -92
18 -20 33 -40 33 -44 0 -5 9 -17 20 -28 12 -12 18 -25 15 -31 -4 -5 -2 -8 3
-7 5 2 35 -30 66 -70 32 -41 51 -70 44 -66 -7 4 9 -14 35 -41 26 -27 47 -53
47 -57 0 -5 8 -17 18 -27 63 -69 153 -197 144 -206 -4 -5 -2 -5 4 -2 7 4 29
-17 52 -48 25 -34 36 -56 29 -59 -8 -3 -8 -5 1 -5 15 -1 21 -7 80 -78 l43 -52
222 0 c122 0 227 3 233 7 6 4 11 21 10 38 l-1 30 -78 1 c-76 1 -79 2 -102 34
-14 17 -22 37 -18 42 3 6 1 7 -6 3 -6 -4 -14 0 -18 11 -4 10 -12 23 -18 28 -7
6 -34 39 -61 75 -27 35 -57 73 -66 84 -10 11 -30 38 -45 60 -15 23 -30 43 -33
46 -18 17 -70 90 -70 98 0 5 -7 13 -16 16 -13 5 -14 9 -4 21 11 13 10 14 -2
10 -16 -6 -62 41 -53 56 4 5 2 8 -3 7 -6 -2 -23 14 -39 34 -15 21 -67 89 -115
151 -49 63 -88 117 -88 120 0 3 24 6 53 5 28 0 60 3 70 7 9 4 26 5 37 2 11 -3
18 -1 15 3 -5 8 71 26 77 19 2 -2 14 4 27 13 13 9 30 14 37 11 8 -3 14 1 14 8
0 7 3 10 6 6 3 -3 29 8 57 25 29 17 58 31 65 31 6 0 12 4 12 9 0 5 15 22 34
39 45 39 94 116 113 176 21 68 20 200 -3 260 -39 105 -110 189 -198 231 -29
14 -44 27 -40 34 4 7 3 8 -4 4 -6 -3 -38 3 -72 14 -33 11 -73 22 -88 24 -15 3
-42 9 -59 14 -21 7 -33 7 -33 1 0 -6 -6 -6 -18 0 -11 6 -209 10 -495 11 -380
0 -478 -2 -481 -12z m901 -78 c60 -17 123 -49 130 -66 3 -7 13 -16 23 -19 23
-7 74 -85 96 -145 30 -84 19 -273 -21 -352 -26 -51 -94 -128 -113 -128 -6 0
-12 -3 -14 -7 -6 -14 -92 -52 -153 -68 -34 -9 -125 -19 -212 -22 l-153 -6 0
414 0 414 184 -1 c119 -1 202 -6 233 -14z"/>
<path d="M28810 2206 c0 -33 2 -35 45 -42 25 -3 60 -3 79 0 20 4 37 2 41 -4 3
-5 0 -10 -7 -10 -10 0 -10 -2 0 -9 8 -4 14 -12 14 -16 0 -4 -6 -12 -14 -16 -7
-5 -8 -9 -2 -9 6 0 11 -7 11 -15 0 -8 -5 -15 -11 -15 -6 0 -5 -4 2 -9 8 -4 14
-12 14 -16 0 -4 -6 -12 -14 -16 -7 -5 -8 -9 -2 -9 6 0 11 -7 11 -15 0 -8 -5
-15 -11 -15 -6 0 -5 -4 2 -9 8 -4 14 -12 14 -16 0 -4 -6 -12 -14 -16 -7 -5 -8
-9 -2 -9 6 0 11 -7 11 -15 0 -8 -5 -15 -11 -15 -6 0 -5 -4 2 -9 8 -4 14 -12
14 -16 0 -4 -6 -12 -14 -16 -7 -5 -8 -9 -2 -9 6 0 11 -7 11 -15 0 -8 -5 -15
-11 -15 -6 0 -5 -4 2 -9 8 -4 14 -12 14 -16 0 -4 -6 -12 -14 -16 -7 -5 -8 -9
-2 -9 6 0 11 -7 11 -15 0 -8 -5 -15 -11 -15 -6 0 -5 -4 2 -9 8 -4 14 -12 14
-16 0 -4 -6 -12 -14 -16 -7 -5 -8 -9 -2 -9 6 0 11 -7 11 -15 0 -8 -5 -15 -11
-15 -6 0 -5 -4 2 -9 8 -4 14 -12 14 -16 0 -4 -6 -12 -14 -16 -7 -5 -8 -9 -2
-9 6 0 11 -7 11 -15 0 -8 -5 -15 -11 -15 -6 0 -5 -4 2 -9 8 -4 14 -12 14 -16
0 -4 -6 -12 -14 -16 -7 -5 -8 -9 -2 -9 6 0 11 -7 11 -15 0 -8 -5 -15 -11 -15
-6 0 -5 -4 2 -9 8 -4 14 -12 14 -16 0 -4 -6 -12 -14 -16 -7 -5 -8 -9 -2 -9 6
0 11 -7 11 -15 0 -8 -5 -15 -11 -15 -6 0 -5 -4 2 -9 8 -4 14 -12 14 -16 0 -4
-6 -12 -14 -16 -7 -5 -8 -9 -2 -9 6 0 11 -7 11 -15 0 -8 -5 -15 -11 -15 -6 0
-5 -4 2 -9 8 -4 14 -12 14 -16 0 -4 -6 -12 -14 -16 -7 -5 -8 -9 -2 -9 6 0 11
-7 11 -15 0 -8 -5 -15 -11 -15 -6 0 -5 -4 2 -9 8 -4 14 -12 14 -16 0 -4 -6
-12 -14 -16 -7 -5 -8 -9 -2 -9 6 0 11 -7 11 -15 0 -8 -5 -15 -11 -15 -6 0 -5
-4 2 -9 8 -4 14 -12 14 -16 0 -4 -6 -12 -14 -16 -7 -5 -8 -9 -2 -9 6 0 11 -7
11 -15 0 -8 -5 -15 -11 -15 -6 0 -5 -4 2 -9 8 -4 14 -12 14 -16 0 -4 -6 -12
-14 -16 -7 -5 -8 -9 -2 -9 6 0 11 -7 11 -15 0 -8 -5 -15 -11 -15 -6 0 -5 -4 2
-9 8 -4 14 -12 14 -16 0 -4 -6 -12 -14 -16 -7 -5 -8 -9 -2 -9 6 0 11 -7 11
-15 0 -8 -5 -15 -11 -15 -6 0 -5 -4 2 -9 8 -4 14 -12 14 -16 0 -4 -6 -12 -14
-16 -7 -5 -8 -9 -2 -9 6 0 11 -7 11 -15 0 -8 -5 -15 -11 -15 -6 0 -5 -4 2 -9
8 -4 14 -12 14 -16 0 -4 -6 -12 -14 -16 -7 -5 -8 -9 -2 -9 6 0 11 -7 11 -15 0
-8 -5 -15 -11 -15 -6 0 -5 -4 2 -9 8 -4 14 -12 14 -16 0 -4 -6 -12 -14 -16 -7
-5 -8 -9 -2 -9 6 0 11 -7 11 -15 0 -8 -5 -15 -11 -15 -6 0 -5 -4 2 -9 8 -4 14
-12 14 -16 0 -4 -6 -12 -14 -16 -7 -5 -8 -9 -2 -9 6 0 11 -7 11 -15 0 -8 -5
-15 -11 -15 -6 0 -5 -4 2 -9 8 -4 14 -12 14 -16 0 -4 -6 -12 -14 -16 -7 -5 -8
-9 -2 -9 6 0 11 -7 11 -15 0 -8 -5 -15 -11 -15 -7 0 -7 -3 -1 -8 15 -11 17
-32 3 -32 -10 0 -10 -2 0 -9 8 -4 14 -12 14 -16 0 -4 -6 -12 -14 -16 -7 -5 -8
-9 -3 -9 6 0 12 -15 13 -33 l2 -33 -82 0 -83 1 -3 -37 -3 -38 758 3 758 2 0
354 0 354 -26 3 c-14 1 -30 -1 -36 -4 -5 -4 -22 -49 -38 -100 -15 -50 -31 -92
-34 -92 -3 0 -7 -10 -8 -23 0 -12 -7 -35 -14 -52 -14 -35 -13 -32 -23 -68 -5
-15 -11 -27 -15 -27 -4 0 -7 -9 -8 -21 -5 -60 -130 -229 -170 -229 -7 0 -13
-3 -13 -8 0 -10 -63 -12 -378 -15 l-262 -2 0 443 0 443 148 -2 c122 -1 153 -5
184 -20 36 -18 79 -64 77 -83 0 -5 4 -12 9 -15 15 -9 47 -96 68 -183 17 -77
18 -78 50 -78 29 0 32 3 38 38 3 20 6 201 6 403 0 386 0 389 -47 389 -24 0
-42 -25 -49 -68 -4 -30 -22 -97 -34 -127 -23 -61 -33 -80 -56 -110 -46 -60
-90 -73 -251 -75 l-143 -1 0 406 0 405 23 0 c12 0 156 0 319 1 163 1 302 -2
310 -7 7 -4 21 -9 32 -9 27 -2 62 -48 103 -134 53 -111 64 -146 50 -160 -9 -9
-8 -11 3 -7 12 4 23 -21 53 -114 38 -119 38 -120 65 -114 21 4 24 3 12 -5 -13
-9 -13 -11 3 -11 9 0 17 7 17 16 0 9 5 12 12 8 7 -4 8 -3 4 4 -4 7 -7 140 -6
295 0 156 -2 291 -6 300 -6 16 -67 17 -745 17 l-739 0 0 -34z"/>
<path d="M31203 2232 c-14 -9 -2 -78 13 -75 11 2 142 5 162 4 9 -1 12 -185 12
-884 l0 -882 -85 3 c-98 4 -117 -4 -106 -46 l7 -27 256 -3 256 -2 4 25 c10 50
-7 57 -130 53 l-112 -3 0 859 c0 473 2 857 4 855 2 -2 43 -67 91 -144 48 -77
108 -171 133 -210 25 -38 45 -75 45 -82 0 -7 4 -13 8 -13 10 0 112 -162 112
-178 0 -6 3 -10 5 -7 9 9 43 -56 36 -68 -4 -7 -4 -9 1 -5 8 8 55 -52 55 -71 0
-5 3 -11 8 -13 10 -4 77 -110 77 -123 1 -5 12 -22 26 -37 14 -15 34 -44 45
-65 10 -21 23 -41 28 -44 5 -4 5 -13 1 -20 -5 -8 -4 -11 0 -6 11 9 46 -43 38
-57 -3 -6 -2 -8 2 -3 8 7 65 -73 65 -92 0 -5 3 -11 8 -13 11 -5 115 -171 115
-185 0 -7 3 -10 7 -8 10 6 51 -71 42 -80 -4 -5 -2 -6 3 -3 6 4 48 -54 93 -128
l84 -134 49 0 c44 0 49 2 49 23 0 12 0 427 0 923 l0 900 97 0 c96 -1 96 -1 98
24 4 50 9 49 -261 50 l-254 1 0 -35 c0 -32 3 -36 35 -42 19 -3 73 -4 120 -1
47 3 85 1 85 -4 0 -5 -3 -9 -7 -9 -5 0 -6 -289 -3 -642 3 -354 5 -645 3 -647
-1 -2 -5 4 -9 13 -4 9 -26 47 -50 83 -24 37 -44 73 -44 80 0 7 -4 13 -10 13
-15 0 -40 57 -34 77 4 13 3 15 -4 5 -7 -10 -17 -1 -42 40 -18 29 -33 58 -33
65 0 7 -3 10 -7 8 -4 -2 -19 17 -34 43 -15 26 -49 82 -76 125 -27 42 -47 77
-44 77 3 0 -4 10 -16 22 -11 12 -26 34 -32 50 -7 15 -15 28 -18 28 -3 0 -17
21 -30 47 -14 26 -33 56 -43 67 -10 11 -15 27 -12 35 3 9 3 12 -1 8 -7 -7 -54
54 -54 72 0 5 -4 11 -8 13 -16 6 -92 141 -85 151 3 6 1 7 -5 3 -7 -4 -18 7
-28 26 -9 18 -23 41 -31 50 -8 9 -12 22 -7 29 4 7 3 10 -2 6 -6 -3 -30 28 -54
68 l-45 74 -275 0 c-151 1 -280 -2 -287 -7z"/>
</g>
</svg>
